<?xml version="1.0" standalone="no"?>
<!DOCTYPE svg PUBLIC "-//W3C//DTD SVG 20010904//EN"
 "http://www.w3.org/TR/2001/REC-SVG-20010904/DTD/svg10.dtd">
<svg version="1.0" xmlns="http://www.w3.org/2000/svg"
 width="2048.000000pt" height="2048.000000pt" viewBox="0 0 2048.000000 2048.000000"
 preserveAspectRatio="xMidYMid meet">
<metadata>
Created by potrace 1.14, written by Peter Selinger 2001-2017
</metadata>
<g transform="translate(0.000000,2048.000000) scale(0.100000,-0.100000)"
fill="#000000" stroke="none">
<path d="M9390 19653 c-256 -26 -481 -74 -720 -154 -47 -15 -94 -29 -105 -31
-11 -2 -22 -6 -25 -10 -8 -11 -152 -58 -161 -53 -4 3 -10 1 -14 -5 -6 -10
-102 -62 -107 -58 -2 1 -21 -10 -43 -23 -22 -14 -56 -32 -75 -39 -67 -27 -461
-236 -509 -270 -23 -16 -87 -57 -133 -85 -9 -5 -55 -38 -103 -72 -47 -35 -90
-63 -96 -63 -6 0 -7 -5 -3 -12 4 -6 3 -8 -4 -4 -6 3 -43 -25 -84 -64 -40 -38
-76 -70 -80 -70 -4 0 -19 -12 -35 -26 -15 -14 -48 -43 -73 -64 l-44 -38 -16
63 c-17 67 -38 99 -121 185 -29 30 -52 60 -50 65 1 6 -1 7 -5 3 -9 -10 -63 22
-76 45 -5 10 -16 16 -23 13 -10 -3 -12 0 -8 11 5 12 2 15 -9 11 -10 -4 -15 -1
-14 10 1 11 -5 16 -18 14 -10 -2 -16 1 -13 5 3 5 -6 14 -21 21 -15 6 -38 22
-52 34 -23 21 -127 78 -141 78 -3 0 -25 18 -48 40 -23 22 -48 40 -56 40 -8 0
-15 5 -15 10 0 6 -5 10 -11 10 -6 0 -17 7 -26 15 -8 8 -18 13 -23 10 -4 -3
-11 2 -14 11 -4 9 -9 14 -12 11 -4 -3 -27 4 -53 17 -40 21 -91 38 -151 51 -8
2 -46 15 -84 29 -38 14 -75 26 -83 26 -8 0 -29 6 -46 14 -73 33 -252 41 -304
13 -52 -28 -121 -101 -143 -153 -12 -27 -27 -61 -35 -76 -21 -42 -27 -81 -30
-186 -1 -63 2 -100 9 -104 8 -5 7 -8 -2 -8 -10 0 -10 -5 -1 -21 8 -15 8 -19 0
-15 -6 4 -11 3 -11 -3 0 -5 6 -12 13 -14 10 -4 10 -6 0 -6 -7 -1 -13 -6 -13
-12 0 -5 4 -8 8 -5 5 3 9 -1 9 -9 0 -8 -4 -12 -9 -9 -4 3 -8 1 -8 -5 0 -5 6
-12 13 -14 9 -4 8 -6 -2 -6 -7 -1 -37 12 -65 28 -28 16 -71 35 -96 42 -25 7
-50 16 -56 21 -12 9 -126 49 -134 48 -5 -2 -76 8 -111 15 -55 11 -198 19 -309
18 -128 -1 -215 -16 -361 -64 -35 -11 -73 -22 -84 -25 -31 -6 -169 -80 -282
-150 -55 -35 -104 -64 -108 -64 -14 0 -145 -135 -145 -150 0 -9 -19 -37 -42
-62 -83 -92 -147 -176 -182 -239 -20 -35 -65 -99 -100 -141 -36 -42 -90 -114
-120 -160 -30 -46 -95 -132 -145 -193 -192 -233 -255 -325 -340 -494 -112
-222 -148 -311 -255 -627 -50 -149 -93 -277 -95 -285 -12 -47 -35 -167 -62
-319 -26 -147 -32 -210 -36 -390 -6 -224 -3 -255 43 -527 27 -156 57 -246 149
-438 64 -134 65 -151 30 -300 -9 -38 -20 -104 -25 -145 -5 -41 -14 -93 -19
-115 -38 -153 -45 -181 -51 -190 -4 -5 -6 -35 -5 -65 4 -68 -3 -112 -16 -104
-6 3 -5 12 3 22 10 14 10 15 -2 5 -20 -18 -21 -53 -1 -45 13 5 14 3 3 -10 -13
-16 -16 -26 -26 -93 -9 -57 -49 -190 -58 -193 -5 -2 -6 -8 -3 -13 8 -12 -25
-60 -37 -53 -6 4 -8 -1 -4 -14 4 -13 1 -22 -9 -26 -10 -3 -13 -11 -9 -18 5 -9
2 -9 -9 1 -15 12 -17 11 -14 -10 3 -16 -7 -38 -28 -64 -18 -22 -72 -98 -119
-170 -134 -200 -153 -228 -180 -261 -14 -18 -26 -36 -26 -41 0 -5 -7 -18 -15
-28 -9 -11 -42 -59 -74 -108 -32 -48 -60 -85 -63 -82 -2 3 -5 -1 -5 -7 0 -17
-110 -168 -267 -368 -200 -254 -474 -747 -557 -1004 -81 -248 -116 -534 -90
-730 16 -117 63 -265 111 -346 112 -190 318 -337 529 -376 l91 -17 0 -43 c0
-138 70 -460 137 -629 61 -155 167 -368 228 -456 69 -99 213 -245 307 -312 80
-57 188 -109 289 -137 89 -25 332 -37 479 -23 116 11 162 4 254 -43 39 -19
114 -54 166 -76 52 -22 113 -48 135 -58 22 -10 69 -30 105 -45 36 -15 99 -44
141 -65 42 -22 79 -36 83 -33 3 4 6 1 6 -5 0 -7 7 -12 15 -12 20 0 92 -36 101
-51 4 -7 3 -9 -4 -5 -6 3 -13 2 -17 -3 -3 -6 6 -8 21 -5 27 5 70 -26 56 -41
-4 -4 -2 -5 3 -3 6 1 25 -3 43 -11 24 -10 31 -18 27 -30 -5 -12 -3 -13 5 -5 9
9 16 8 29 -3 9 -7 27 -22 40 -32 19 -14 21 -20 11 -26 -9 -6 -11 -4 -5 5 5 9
4 11 -4 6 -16 -11 -3 -26 16 -19 11 4 14 3 9 -5 -4 -7 -2 -12 5 -12 8 0 7 -5
-2 -17 -10 -11 -10 -14 -1 -9 6 4 12 4 12 -1 0 -11 -47 -148 -58 -170 -6 -10
-33 -65 -61 -123 -111 -228 -178 -319 -306 -415 -137 -102 -245 -137 -357
-116 -131 26 -255 105 -315 203 -21 34 -37 66 -35 70 1 4 -2 8 -7 8 -5 0 -19
23 -31 52 -30 70 -24 135 20 225 18 37 40 73 48 79 10 8 12 13 4 18 -6 4 -9
13 -6 21 4 8 11 12 17 8 6 -3 7 -1 3 6 -4 6 -12 9 -17 6 -15 -10 -10 12 7 30
15 14 14 15 -10 11 -22 -4 -29 0 -37 21 -8 21 -12 23 -24 13 -11 -9 -15 -9
-15 -1 0 7 -5 9 -11 6 -5 -4 -21 -8 -34 -10 -34 -3 -91 -49 -122 -98 -15 -23
-59 -91 -98 -152 -145 -221 -156 -260 -162 -535 l-5 -205 31 -88 c39 -116 68
-164 155 -254 117 -124 249 -205 376 -232 78 -17 222 -12 308 10 56 15 77 17
94 8 11 -6 35 -13 52 -16 45 -7 49 -14 37 -74 -23 -129 -5 -369 37 -489 86
-245 248 -424 486 -536 102 -48 175 -64 293 -64 57 0 103 -2 103 -4 0 -2 -11
-29 -25 -60 -49 -110 -130 -156 -275 -156 -68 0 -80 -3 -101 -24 -18 -17 -24
-35 -24 -63 1 -48 36 -85 114 -122 52 -24 65 -26 201 -26 136 1 149 2 215 29
74 30 183 96 251 152 23 19 48 34 56 34 9 0 21 7 28 15 7 9 15 13 18 11 2 -3
22 6 43 20 21 13 43 24 48 24 18 0 130 101 152 138 16 27 23 55 24 101 l2 64
45 23 c24 12 50 30 58 38 10 13 23 15 60 10 92 -12 261 43 337 109 46 41 142
188 159 245 16 53 18 237 3 302 -5 24 -20 58 -33 75 -36 47 -101 180 -144 295
-50 136 -96 217 -157 281 -63 66 -95 79 -194 79 -71 0 -83 -3 -110 -26 -27
-22 -31 -33 -31 -73 0 -60 26 -86 93 -95 66 -8 101 -29 121 -71 22 -46 18 -97
-10 -156 -23 -47 -89 -118 -111 -120 -7 -1 -18 -2 -25 -3 -6 0 -13 -8 -15 -16
-4 -13 -3 -13 7 0 10 13 11 13 7 0 -2 -8 -12 -15 -23 -15 -10 0 -18 -6 -17
-12 3 -12 -9 -17 -29 -14 -5 0 -8 -4 -8 -10 0 -8 -5 -7 -15 1 -13 11 -14 10
-9 -5 5 -13 4 -16 -4 -11 -7 4 -12 2 -12 -5 0 -7 -3 -9 -7 -6 -3 4 -12 2 -20
-5 -10 -8 -29 -7 -78 7 -36 9 -65 21 -65 26 0 4 -10 13 -21 20 -15 8 -19 8
-15 0 4 -6 4 -11 1 -11 -3 0 -20 29 -36 65 -34 72 -47 142 -45 253 1 66 4 76
24 91 54 38 92 74 92 88 0 17 30 58 45 62 6 2 20 7 33 12 13 5 28 9 33 9 17 0
282 92 369 128 130 55 239 134 384 280 71 72 134 128 140 126 15 -6 69 52 93
100 l20 39 33 -41 c18 -23 37 -39 42 -36 5 3 7 1 6 -5 -7 -23 289 -266 392
-322 25 -13 48 -28 51 -32 3 -4 16 -9 27 -10 12 -1 22 -4 22 -7 0 -3 11 -7 25
-8 13 -1 48 -13 77 -28 63 -31 189 -74 238 -81 19 -2 53 -9 75 -14 22 -6 117
-12 210 -16 160 -5 175 -4 265 20 59 15 137 27 205 31 114 6 129 8 156 20 8 4
40 8 71 9 31 1 54 5 52 9 -6 10 34 20 48 12 7 -4 10 -3 5 1 -4 5 28 25 70 45
52 24 99 57 141 96 58 56 62 62 62 105 0 90 -76 116 -169 59 -27 -17 -65 -32
-85 -33 -19 -2 -38 -6 -41 -8 -10 -10 -147 0 -223 17 -42 9 -92 26 -110 36
-19 10 -58 25 -87 32 -90 24 -184 80 -337 200 -79 62 -95 83 -55 70 23 -7 211
-7 287 1 25 3 66 6 91 8 26 2 54 9 63 16 9 7 16 10 16 5 0 -5 5 -1 11 9 7 12
17 16 30 12 12 -4 27 -1 37 8 9 9 37 23 62 33 67 27 140 71 184 112 65 62 126
151 126 184 l0 30 38 -23 c20 -13 39 -27 40 -31 2 -5 7 -6 12 -3 4 3 31 -11
60 -31 29 -20 49 -30 44 -22 -5 8 -1 8 12 -3 43 -36 130 -81 231 -121 60 -23
111 -43 115 -43 3 0 10 -3 14 -7 4 -5 15 -8 24 -8 10 0 23 -7 30 -15 7 -8 17
-15 23 -15 6 0 2 7 -9 16 -10 9 -2 6 19 -5 21 -12 47 -21 58 -21 10 0 28 -9
39 -20 11 -11 32 -21 46 -22 15 -2 29 -8 31 -15 3 -7 9 -13 15 -13 5 0 6 4 3
10 -4 6 1 7 11 3 11 -4 13 -8 6 -11 -21 -7 -13 -25 8 -19 18 5 25 -4 21 -26
-1 -5 3 -6 8 -3 5 3 20 -3 34 -14 14 -11 30 -20 37 -20 24 0 35 -27 38 -90 2
-36 7 -79 11 -96 13 -47 11 -236 -3 -253 -8 -11 -8 -13 1 -8 8 5 7 -2 -2 -20
-8 -15 -15 -32 -15 -38 0 -5 -11 -39 -25 -75 -28 -73 -47 -89 -160 -134 -106
-43 -152 -53 -243 -51 -46 0 -86 -3 -88 -7 -3 -5 -11 -5 -17 -2 -7 4 -9 4 -5
-1 4 -4 0 -14 -10 -22 -16 -12 -16 -13 3 -7 16 5 17 4 5 -4 -9 -7 -18 -7 -26
-1 -15 12 -46 0 -37 -15 4 -6 -1 -5 -10 3 -9 7 -17 9 -17 4 0 -5 -12 -8 -27
-7 -16 1 -32 -1 -38 -5 -5 -3 -14 -6 -20 -7 -61 -10 -266 -72 -284 -86 -13
-10 -34 -16 -47 -14 -13 3 -24 1 -24 -3 0 -5 -34 -7 -76 -4 -88 5 -183 -20
-256 -66 -25 -16 -50 -26 -56 -22 -20 12 -277 -7 -367 -28 -148 -36 -259 -66
-280 -78 -11 -6 -24 -12 -30 -13 -75 -15 -283 -189 -366 -305 -29 -41 -57 -75
-61 -75 -4 0 -8 -5 -8 -12 0 -7 -17 -37 -39 -68 -21 -30 -42 -66 -46 -80 -4
-14 -38 -88 -75 -165 -37 -77 -83 -187 -103 -245 -38 -113 -114 -413 -118
-470 -2 -19 -5 -39 -8 -45 -3 -5 -7 -21 -9 -35 -4 -34 -10 -64 -13 -67 -2 -4
-6 -21 -8 -35 -1 -7 -15 -28 -31 -45 -31 -33 -77 -115 -87 -156 -5 -21 -12
-115 -16 -222 -1 -35 -8 -56 -24 -74 -21 -22 -28 -41 -24 -65 1 -4 -3 -14 -10
-22 -7 -9 -12 -70 -14 -166 -2 -84 -4 -161 -4 -171 -1 -11 -6 -16 -13 -12 -7
4 -5 0 4 -8 14 -11 16 -20 8 -48 -13 -43 -13 -44 4 -29 8 6 12 19 9 28 -4 14
-3 15 5 2 7 -9 7 -18 1 -26 -5 -7 -9 -16 -8 -20 4 -22 -2 -33 -15 -28 -8 3
-17 0 -21 -5 -3 -6 -10 -9 -15 -6 -5 3 -11 1 -14 -4 -7 -11 13 -9 32 3 8 5 18
4 25 -3 6 -6 7 -11 3 -11 -5 0 -3 -7 4 -15 7 -8 10 -21 7 -28 -3 -8 1 -14 8
-14 17 0 14 29 -5 44 -8 7 -10 12 -5 13 21 0 32 -16 40 -55 5 -22 9 -46 11
-53 1 -6 -2 -10 -7 -6 -5 3 -9 1 -9 -5 0 -5 6 -11 12 -13 7 -3 14 -18 15 -34
4 -52 9 -80 17 -93 7 -10 4 -11 -13 -2 -11 7 -21 16 -21 22 0 6 5 7 12 3 7 -5
8 -3 2 7 -5 8 -7 23 -5 34 2 11 -1 16 -5 12 -5 -4 -9 -24 -9 -44 -1 -20 -6
-38 -11 -40 -15 -5 -10 72 5 91 9 11 10 16 2 16 -6 0 -10 3 -10 8 3 19 -2 29
-17 29 -14 0 -14 -2 -3 -11 20 -16 24 -47 4 -40 -8 3 -13 10 -10 14 3 4 -3 14
-13 21 -15 12 -16 12 -5 -2 9 -11 10 -18 1 -27 -8 -8 -8 -15 2 -27 9 -11 10
-18 1 -29 -9 -11 -8 -18 4 -30 21 -21 56 -39 54 -29 -7 39 45 -9 56 -52 10
-36 10 -38 29 -95 8 -25 22 -72 32 -105 10 -33 25 -78 35 -100 9 -22 27 -67
39 -100 12 -33 25 -64 30 -70 4 -5 11 -21 15 -34 4 -13 26 -52 49 -87 22 -34
49 -75 58 -91 10 -15 38 -61 63 -101 25 -41 45 -77 45 -82 0 -5 5 -10 11 -12
5 -2 12 -16 13 -32 2 -15 7 -31 12 -35 5 -3 9 -17 9 -31 -1 -14 3 -28 9 -32 5
-3 10 -15 11 -26 1 -11 7 -27 14 -36 11 -13 11 -19 1 -32 -11 -12 -11 -15 1
-12 11 2 15 -19 20 -102 11 -177 41 -254 114 -284 38 -16 149 -36 201 -36 40
0 146 -22 289 -58 82 -21 221 -49 286 -57 20 -2 62 -11 93 -19 159 -42 396
-48 465 -12 92 49 129 136 93 225 -14 34 -13 35 24 70 38 36 60 46 69 31 7
-12 88 0 107 17 14 13 17 12 23 -6 4 -13 15 -21 28 -21 18 0 19 -2 7 -10 -12
-8 -10 -10 9 -10 17 0 22 -4 17 -16 -3 -8 -2 -12 4 -9 6 3 10 1 10 -4 0 -6 5
-11 10 -11 7 0 7 7 0 23 -10 20 -10 21 4 4 8 -11 12 -26 8 -35 -5 -15 -4 -16
13 -2 14 11 19 12 22 2 3 -6 10 -9 15 -6 7 4 8 2 4 -4 -4 -6 -14 -8 -23 -5
-11 4 -14 3 -9 -6 4 -6 15 -10 23 -9 9 2 17 -5 19 -15 3 -22 14 -36 14 -19 0
7 5 12 11 12 5 0 8 -4 5 -8 -2 -4 4 -8 15 -8 21 0 18 4 -28 32 -15 10 -16 14
-5 25 11 12 12 11 7 -4 -8 -20 5 -22 25 -4 11 9 11 8 0 -7 -14 -18 -13 -19 3
-13 11 4 16 3 12 -3 -3 -6 -1 -10 4 -10 6 0 11 -8 11 -17 0 -15 2 -16 10 -3 6
10 10 11 10 3 0 -15 36 -18 45 -4 3 5 1 12 -5 16 -5 3 -10 1 -10 -6 0 -7 -3
-10 -6 -6 -3 3 -3 11 1 17 5 8 11 8 21 -1 20 -16 0 -49 -26 -44 -11 2 -18 0
-15 -5 3 -5 14 -7 25 -5 11 2 22 0 25 -4 2 -5 15 -7 27 -6 13 1 29 3 36 4 7 0
10 6 7 12 -4 6 -10 8 -13 5 -3 -3 -12 0 -21 7 -14 11 -14 10 -2 -6 16 -21 -1
-23 -19 -2 -9 10 -9 15 -1 15 6 0 13 -1 14 -2 2 -2 12 4 23 12 10 8 16 10 11
5 -4 -5 5 -21 20 -37 15 -15 21 -28 15 -28 -7 0 -12 5 -12 11 0 8 -5 8 -15 -1
-18 -15 -9 -34 12 -26 8 3 24 1 35 -5 16 -8 22 -8 29 2 4 7 5 18 1 24 -3 5 2
4 11 -3 18 -15 41 -7 31 10 -4 6 -2 8 3 5 6 -4 10 -21 9 -38 -2 -27 3 -33 33
-48 20 -9 40 -20 44 -26 5 -5 5 1 2 14 -5 16 -4 21 4 17 6 -4 9 -1 8 6 -2 7
-2 9 1 5 2 -4 10 -3 17 3 9 7 16 6 25 -5 7 -8 17 -12 23 -8 6 3 7 1 3 -5 -4
-7 -1 -12 8 -12 8 0 16 3 19 8 2 4 2 2 1 -5 -4 -17 13 -26 20 -11 3 7 3 3 0
-9 -3 -13 -1 -23 5 -23 6 0 11 -7 11 -15 0 -8 -5 -15 -11 -15 -5 0 -8 4 -4 9
3 6 -2 14 -11 19 -9 5 -15 13 -15 18 1 5 -5 9 -11 9 -7 0 -17 6 -23 13 -7 9
-10 6 -10 -12 0 -19 3 -22 17 -15 26 14 35 10 14 -6 -11 -8 -14 -15 -7 -15 7
0 9 -4 6 -10 -5 -9 9 -14 18 -7 2 1 11 -4 20 -12 12 -9 17 -10 17 -2 0 8 5 9
19 2 10 -6 21 -7 25 -4 3 3 6 1 6 -5 0 -7 5 -12 11 -12 5 0 7 4 4 10 -3 5 -1
10 4 10 6 0 11 -5 11 -11 0 -5 5 -7 10 -4 6 4 7 12 3 18 -5 8 -2 8 9 0 8 -7
18 -10 21 -6 4 3 7 1 7 -6 0 -6 -7 -11 -16 -9 -10 2 -19 -3 -22 -11 -3 -9 0
-11 7 -6 14 8 53 -29 43 -41 -4 -4 -2 -4 5 -1 6 4 13 2 15 -4 2 -7 19 -13 37
-15 17 -2 30 0 27 5 -3 5 2 15 12 22 15 13 16 12 3 -3 -11 -15 -11 -19 4 -24
9 -4 36 -7 60 -8 24 0 41 -4 39 -8 -5 -8 7 -10 66 -11 19 -1 38 -6 42 -11 5
-7 8 -6 8 2 0 9 5 10 18 3 13 -7 20 -5 30 12 8 13 11 15 8 5 -3 -10 -1 -20 4
-23 6 -4 10 -1 10 5 0 6 5 8 10 5 6 -3 13 1 16 9 3 9 11 16 17 16 7 0 7 -4 -1
-12 -17 -17 -15 -33 2 -19 10 9 16 9 21 1 5 -8 12 -7 23 2 10 8 27 13 40 12
27 -2 29 12 2 19 -11 3 -18 1 -15 -3 3 -5 -3 -7 -12 -5 -10 1 -23 -2 -30 -7
-9 -7 -11 -4 -8 11 6 31 15 42 27 35 7 -5 9 -1 5 9 -3 10 -2 17 4 17 6 0 9 -8
7 -18 -2 -9 -10 -16 -16 -15 -14 3 -16 -13 -3 -22 5 -3 12 -1 16 5 3 5 17 7
31 4 14 -4 24 -2 24 5 0 6 -5 10 -11 8 -6 -1 -14 5 -16 13 -4 12 -3 12 5 2 5
-8 13 -13 18 -13 5 1 10 -8 10 -19 1 -21 14 -42 14 -23 0 5 14 9 32 8 28 -2
29 -1 13 12 -18 12 -17 13 8 13 19 0 25 4 21 15 -10 25 5 17 20 -12 8 -16 15
-22 16 -15 0 6 7 12 16 12 8 0 12 -5 9 -11 -4 -6 2 -5 13 2 20 13 26 49 9 49
-5 0 -7 -6 -4 -14 4 -9 0 -13 -11 -11 -9 1 -24 -2 -32 -8 -8 -6 -12 -7 -8 -3
4 5 2 16 -4 25 -7 9 -8 13 -4 9 5 -4 15 -3 23 4 8 6 13 7 12 2 -4 -23 3 -24
21 -3 18 23 27 16 20 -16 -1 -5 2 -7 5 -3 4 4 17 2 29 -4 20 -10 20 -10 -2 14
-16 18 -18 25 -8 25 8 0 13 -4 10 -9 -3 -4 2 -8 10 -8 9 0 16 -6 16 -12 0 -9
4 -8 10 2 9 13 10 13 10 0 0 -13 1 -13 10 0 5 8 17 15 27 16 45 3 51 5 49 19
-1 8 -6 18 -10 22 -4 4 -6 1 -4 -7 2 -8 -3 -14 -10 -12 -8 1 -11 -2 -7 -8 3
-5 1 -10 -4 -10 -6 0 -11 7 -11 16 0 13 -4 11 -18 -6 -17 -21 -19 -21 -25 -6
-4 10 -3 15 3 11 6 -3 22 6 36 22 15 15 21 20 14 11 -7 -11 -8 -18 -2 -18 14
0 33 25 25 33 -3 4 -1 7 6 7 7 0 10 4 7 9 -4 5 4 6 16 3 19 -5 20 -7 6 -10
-10 -2 -18 -8 -18 -13 0 -6 4 -8 8 -5 5 3 9 -1 9 -9 0 -8 -4 -12 -9 -9 -4 3
-5 -2 -1 -11 5 -13 7 -14 14 -3 5 7 9 21 9 31 0 11 5 16 13 12 6 -4 3 2 -9 12
-19 17 -30 58 -12 47 4 -3 8 2 8 10 0 8 -5 18 -10 21 -5 3 -10 13 -10 21 0 8
5 12 10 9 6 -4 7 -11 4 -17 -4 -7 -2 -8 4 -4 9 5 9 12 0 26 -7 10 -14 18 -17
18 -4 0 -13 0 -21 1 -12 1 -12 3 -2 10 10 6 8 15 -12 38 -14 17 -26 35 -26 41
0 6 -19 34 -41 63 -47 59 -44 57 62 -21 41 -31 100 -70 130 -86 30 -16 57 -33
61 -39 4 -5 8 -6 8 -1 0 5 7 2 17 -5 16 -14 136 -21 128 -8 -3 3 14 12 36 19
28 10 38 18 34 28 -5 12 -3 13 10 2 9 -7 12 -16 7 -19 -10 -6 -15 -33 -13 -59
1 -8 10 -11 29 -7 l27 5 -25 -10 c-23 -11 -24 -12 -8 -24 10 -7 14 -17 10 -21
-4 -5 -2 -5 5 -1 6 3 15 2 18 -4 5 -8 11 -8 20 0 10 8 15 8 21 -1 4 -7 3 -9
-3 -6 -5 3 -10 0 -10 -8 0 -19 2 -19 21 1 15 14 16 13 17 -13 0 -15 3 -22 6
-16 3 9 10 10 22 3 10 -5 21 -6 25 -3 3 3 6 1 6 -5 0 -5 -6 -13 -12 -15 -10
-4 -10 -6 0 -6 7 -1 15 6 18 14 7 18 26 20 23 2 -4 -31 0 -38 15 -25 10 9 11
15 2 20 -8 6 -8 8 0 8 16 0 35 -25 26 -35 -4 -4 3 -4 16 0 26 8 73 -18 69 -38
-1 -8 16 -12 59 -12 62 -1 72 8 50 43 -4 6 -2 12 3 12 6 0 11 -4 11 -10 0 -5
7 -10 16 -10 8 0 12 5 9 10 -3 6 -1 10 5 10 6 0 9 -8 6 -18 -5 -14 -1 -18 15
-17 11 1 25 8 30 16 8 12 10 12 19 -1 8 -12 10 -12 10 -1 0 9 7 11 23 8 21 -6
21 -6 3 8 -16 12 -22 12 -29 2 -6 -9 -7 -8 -4 3 5 19 38 19 55 0 10 -13 11
-13 6 1 -7 21 35 54 50 39 12 -12 29 -13 22 -2 -3 4 8 7 24 6 23 -2 27 1 22
15 -5 14 -3 14 11 3 13 -12 21 -11 44 1 15 9 36 18 46 21 11 4 15 11 11 18 -5
10 -4 10 6 1 11 -10 18 -9 34 5 14 12 17 13 11 2 -8 -13 -7 -13 9 0 10 8 23
15 30 17 6 1 25 6 41 9 17 4 32 10 35 13 4 6 70 29 100 36 3 1 30 9 61 18 31
9 67 19 80 21 13 3 24 5 24 6 0 1 11 4 25 7 34 6 41 9 70 20 14 6 37 10 52 9
15 -1 24 2 21 8 -4 5 3 7 15 4 12 -4 22 -2 22 2 0 5 11 7 25 5 14 -1 28 2 31
7 3 5 12 4 20 -3 12 -10 15 -10 12 2 -2 8 3 13 10 12 6 -2 12 2 12 7 0 7 6 7
19 0 12 -6 21 -6 23 0 2 8 58 20 105 23 6 0 9 7 6 15 -5 12 -2 12 17 2 20 -11
22 -10 17 3 -9 23 4 29 19 9 12 -15 13 -15 9 6 -3 19 -1 22 9 13 10 -9 15 -7
20 6 5 13 15 5 43 -38 20 -30 45 -63 55 -73 10 -11 18 -22 19 -25 4 -34 13
-49 46 -77 21 -19 48 -34 61 -34 12 0 22 -5 22 -11 0 -6 7 -9 15 -5 8 3 21 -1
29 -9 8 -8 24 -15 36 -15 12 0 18 -4 15 -10 -4 -6 -3 -9 2 -8 9 3 111 -28 158
-48 57 -24 100 -39 108 -36 4 1 7 -2 7 -7 0 -19 73 -28 290 -34 188 -6 321 6
373 33 30 16 61 21 145 23 120 2 132 -2 217 -72 66 -55 100 -55 214 1 96 48
157 97 177 145 19 45 17 150 -3 214 -22 68 -99 149 -141 149 -16 0 -29 6 -29
13 0 6 -4 26 -8 42 -4 17 -9 73 -12 125 -3 52 -10 98 -15 101 -8 5 17 87 31
99 16 13 61 80 60 87 -1 4 5 25 14 45 10 21 17 44 17 53 0 15 3 23 33 83 10
19 15 38 11 43 -3 5 -1 9 5 9 5 0 8 9 6 20 -2 11 1 23 7 26 7 5 8 2 3 -6 -5
-8 -4 -11 3 -6 6 4 9 13 6 20 -3 7 2 19 11 26 8 7 15 25 15 41 0 15 4 30 10
34 5 3 19 20 32 37 12 17 17 28 10 24 -7 -4 -12 -4 -12 -1 0 9 30 38 35 33 7
-6 70 -176 100 -268 15 -47 41 -119 58 -160 16 -41 44 -118 63 -170 46 -131
157 -386 179 -410 27 -30 95 -27 125 5 20 21 23 34 22 95 -1 39 -3 74 -6 78
-2 4 -10 53 -16 109 -13 121 -11 112 -45 243 -15 58 -28 115 -29 127 0 12 -3
19 -6 17 -2 -3 -35 86 -72 198 -144 439 -226 670 -244 689 -11 12 -18 23 -17
25 23 41 33 71 37 113 3 29 8 57 12 63 4 6 8 54 10 107 3 107 -15 183 -56 226
l-24 25 15 108 c13 102 19 340 8 372 -21 63 -109 167 -131 154 -9 -5 -8 -2 2
11 8 10 10 16 3 12 -12 -8 -27 27 -22 49 2 5 -1 29 -6 54 -4 25 -9 59 -10 75
0 17 -6 53 -13 80 -6 28 -14 64 -16 80 -2 17 -5 30 -6 30 -1 0 -4 13 -6 28
-11 97 -61 294 -89 347 -7 14 -10 31 -8 38 3 7 -3 22 -13 33 -9 10 -14 19 -11
19 5 0 -12 59 -30 100 -8 18 -10 27 -12 41 0 5 -6 7 -13 3 -7 -4 -8 -3 -4 5 4
6 3 18 -3 25 -25 30 -69 130 -66 152 2 17 -9 35 -39 61 -22 21 -40 41 -38 46
1 5 -1 6 -6 3 -5 -3 -47 37 -93 89 -46 52 -91 95 -99 95 -13 0 -13 1 0 11 12
8 11 9 -5 5 -13 -4 -30 3 -49 19 -16 14 -33 25 -38 25 -5 0 -6 6 -2 13 4 6 3
9 -1 4 -5 -4 -19 0 -33 9 -13 9 -22 11 -18 5 4 -5 -6 -4 -21 4 -15 8 -35 15
-43 15 -9 0 -26 7 -38 16 -12 8 -22 12 -22 8 0 -5 -5 -3 -11 3 -6 6 -17 9 -24
6 -7 -2 -26 2 -42 10 -15 8 -55 20 -88 27 -33 6 -69 18 -81 25 -22 14 -144 25
-144 13 0 -13 -28 -9 -43 6 -8 8 -38 21 -68 30 -30 8 -69 19 -86 24 -18 6 -33
8 -33 5 0 -4 -11 4 -24 16 -31 29 -93 37 -178 22 -56 -9 -124 -5 -193 13 -5 1
-50 8 -100 15 -49 7 -104 14 -121 17 -18 2 -44 14 -59 26 -17 13 -47 23 -79
26 -28 2 -57 10 -65 16 -11 8 -13 8 -7 -2 4 -6 3 -12 -3 -12 -5 0 -11 5 -13
11 -4 13 -17 15 -138 30 -47 6 -93 15 -102 20 -10 5 -30 9 -45 9 -27 0 -74 14
-138 41 -16 7 -32 13 -35 14 -3 0 -18 8 -35 17 -16 8 -42 18 -57 22 -15 3 -37
16 -49 29 -12 12 -19 16 -15 10 4 -7 5 -13 2 -13 -9 0 -59 83 -61 100 -1 8 -6
24 -10 35 -19 52 -25 76 -40 149 -8 44 -17 82 -20 84 -3 3 0 11 6 19 6 7 8 13
3 13 -5 0 -10 32 -10 70 -1 39 3 70 8 70 5 0 7 -4 3 -9 -3 -5 -1 -12 4 -15 15
-10 6 25 -10 36 -10 7 -11 11 -2 14 7 3 9 13 6 22 -6 14 -4 15 8 5 13 -11 15
-8 11 17 -3 23 0 30 13 30 11 0 15 5 11 16 -3 8 -2 13 3 10 4 -3 13 12 20 34
6 22 21 45 34 51 31 17 47 35 39 44 -4 5 -1 5 6 1 7 -4 28 5 52 24 49 39 146
91 154 83 3 -4 6 -1 6 5 0 7 6 12 14 12 7 0 19 7 27 16 7 8 21 13 31 11 10 -3
16 -1 13 3 -4 7 23 22 45 25 3 0 11 4 18 8 6 5 12 5 12 0 0 -4 4 -3 8 3 7 11
106 59 108 53 0 -2 8 4 18 14 10 9 22 15 27 12 5 -4 9 -2 9 3 0 6 8 13 17 16
15 6 14 4 -2 -14 -12 -14 -20 -40 -23 -78 -4 -57 -3 -57 43 -102 l46 -45 85
-4 c50 -2 90 1 96 7 7 7 21 4 42 -9 79 -46 226 -56 366 -25 14 3 44 7 67 10
23 2 46 6 51 10 6 3 13 2 17 -4 4 -6 15 -4 31 6 23 16 24 15 19 -2 -4 -12 -2
-11 6 4 7 12 16 22 21 22 5 0 7 -4 4 -8 -2 -4 4 -8 14 -8 10 0 17 3 14 7 -2 4
15 10 38 13 23 4 48 12 55 18 7 6 13 8 13 4 0 -3 11 -1 25 4 45 17 37 5 -77
-110 -84 -86 -125 -121 -142 -124 -8 -1 -20 -7 -27 -13 -8 -5 -26 -13 -40 -16
-14 -4 -39 -19 -55 -34 -16 -16 -36 -28 -44 -29 -8 0 -28 -6 -45 -13 -16 -7
-39 -15 -49 -17 -11 -2 -23 -9 -26 -15 -4 -6 -10 -10 -14 -10 -3 1 -7 1 -8 0
-5 -1 -34 -7 -60 -12 -14 -3 -37 -11 -50 -18 -12 -7 -24 -12 -25 -11 -2 1 -6
2 -10 1 -5 -1 -15 -2 -23 -3 -8 -2 -23 -3 -33 -4 -10 -1 -16 -5 -14 -9 3 -5
-45 -8 -106 -7 -147 1 -180 15 -215 93 -37 83 -57 101 -112 101 -66 0 -90 -27
-90 -103 0 -32 7 -74 15 -94 24 -57 164 -186 228 -209 9 -3 17 -10 17 -15 0
-5 9 -9 21 -9 11 0 29 -5 40 -10 10 -6 36 -13 56 -15 21 -3 85 -13 143 -23 58
-11 109 -16 114 -11 5 4 19 4 31 -1 13 -5 25 -7 28 -4 2 3 17 7 33 9 16 2 39
6 50 9 12 2 37 7 55 10 87 14 103 21 93 38 -5 7 -2 8 5 3 9 -5 10 -10 2 -18
-6 -6 -11 -32 -11 -57 0 -57 29 -89 87 -97 65 -8 294 15 368 38 162 49 421
226 595 406 189 196 270 285 270 297 0 6 18 31 38 55 l38 43 44 -58 c70 -93
227 -250 325 -324 53 -41 137 -91 205 -124 118 -56 370 -143 495 -170 213 -47
297 -69 332 -87 33 -18 48 -23 97 -32 36 -7 45 -63 32 -202 -14 -138 -89 -323
-165 -404 -33 -35 -70 -40 -163 -20 -131 29 -183 76 -174 159 5 47 13 67 59
137 40 63 67 77 155 79 66 2 77 5 97 28 21 24 21 31 16 118 -1 10 -18 36 -38
59 l-37 41 -76 -4 c-92 -6 -156 -33 -291 -123 -109 -73 -174 -141 -226 -235
-19 -36 -59 -101 -88 -145 -76 -115 -75 -112 -75 -242 0 -135 19 -237 54 -297
44 -75 136 -165 235 -230 53 -35 127 -88 165 -118 59 -45 71 -60 86 -104 32
-101 100 -184 212 -262 32 -21 54 -42 51 -46 -4 -4 1 -4 11 0 12 5 17 4 13 -3
-3 -5 1 -10 10 -10 9 0 37 -24 62 -54 159 -189 334 -314 499 -355 60 -15 282
-28 317 -18 11 3 46 29 78 57 53 48 58 56 59 95 0 32 -6 50 -23 68 -22 24 -26
24 -154 22 -130 -2 -132 -2 -198 30 -42 21 -78 47 -98 74 -31 38 -32 42 -18
67 10 17 29 30 59 39 120 34 241 77 295 104 77 39 219 135 315 213 41 34 102
81 134 105 76 56 99 77 183 177 68 80 135 200 168 298 39 117 59 474 36 635
-6 41 -14 109 -17 150 -3 41 -10 80 -15 86 -5 6 -10 23 -11 38 -1 14 -5 26 -8
26 -3 0 -6 9 -7 20 -1 13 2 18 10 13 7 -4 5 2 -3 12 -14 18 -13 18 35 10 28
-4 58 -8 68 -8 9 -1 17 -5 17 -9 0 -13 35 -9 49 4 11 10 13 10 7 1 -8 -15 10
-18 19 -4 5 10 43 7 54 -4 3 -4 -7 -4 -22 -1 -15 3 -25 2 -23 -2 2 -4 19 -9
36 -10 23 -2 29 1 24 10 -6 10 -5 10 7 1 23 -18 25 -19 40 -6 8 6 32 14 54 18
22 4 46 12 53 18 6 5 12 6 12 3 0 -4 14 2 30 14 17 12 30 19 30 15 0 -3 11 2
25 11 14 9 25 12 25 8 0 -5 6 -2 13 7 7 9 30 25 52 37 33 16 91 69 172 157 24
26 112 202 129 260 15 48 18 95 19 230 0 153 -2 177 -24 240 -51 151 -127 253
-236 316 -101 58 -189 29 -190 -64 0 -23 5 -49 12 -57 7 -8 30 -37 53 -65 77
-93 106 -192 80 -271 -13 -40 -61 -117 -90 -144 -12 -12 -13 -13 -1 -5 9 6 -2
-11 -24 -38 -23 -27 -45 -45 -53 -42 -7 3 -10 0 -7 -6 4 -5 1 -16 -5 -24 -14
-17 -45 -21 -35 -5 3 5 1 10 -4 10 -14 0 -14 -13 0 -27 7 -7 6 -12 -6 -17 -11
-4 -14 -2 -10 7 4 6 0 5 -7 -3 -7 -8 -24 -21 -37 -28 -19 -11 -22 -11 -16 0 6
10 5 11 -6 0 -15 -14 -145 -17 -154 -2 -3 5 -12 7 -20 3 -8 -3 -15 0 -15 7 0
6 -5 8 -10 5 -5 -3 -10 -1 -10 5 0 6 -4 8 -10 5 -5 -3 -10 -2 -10 3 0 4 -24
15 -52 22 -108 29 -337 207 -405 314 -23 36 -44 124 -58 241 -3 22 -8 63 -11
90 -4 28 -6 57 -5 65 1 8 2 34 2 58 1 23 5 42 11 42 5 0 6 -5 2 -12 -4 -7 -3
-8 4 -4 17 10 15 26 -4 26 -8 0 -12 5 -9 10 4 6 10 8 14 6 4 -3 8 2 8 10 0 10
-4 11 -11 4 -17 -17 -29 -11 -15 7 10 11 10 14 2 9 -7 -4 -13 -2 -13 3 0 6 4
11 10 11 5 0 9 3 8 8 -4 15 14 52 23 47 5 -3 6 1 3 9 -8 21 24 38 103 54 39 8
41 8 33 -9 -7 -12 -6 -20 2 -25 6 -4 8 -3 4 4 -3 6 -2 13 4 17 5 3 10 1 10 -5
0 -6 7 -18 15 -26 8 -9 15 -13 15 -9 0 4 6 0 14 -8 27 -26 83 -10 177 51 190
122 264 167 272 164 5 -1 6 2 3 7 -4 5 3 12 14 16 11 4 18 11 15 16 -4 5 6 9
20 9 17 0 24 4 19 12 -4 7 -3 8 5 4 7 -5 28 2 49 16 20 13 46 29 57 35 284
170 558 383 579 451 4 13 19 25 34 28 100 24 268 159 349 280 19 28 74 150
122 270 48 120 98 241 111 268 57 125 119 373 123 493 0 7 5 11 11 10 6 -1 10
3 9 10 -3 13 61 65 71 58 3 -3 4 -2 2 1 -3 3 11 26 30 51 99 129 160 301 184
518 21 193 7 528 -31 716 -31 158 -102 381 -182 576 -13 32 -28 67 -32 78 -5
11 -7 24 -6 29 1 5 -2 12 -7 15 -14 9 -277 540 -339 686 -62 146 -72 172 -153
405 -50 143 -143 370 -213 520 -12 25 -22 48 -23 53 -1 4 -3 9 -4 12 -1 3 -3
9 -4 13 0 4 -11 28 -23 52 -56 116 -184 470 -214 599 -19 76 -19 86 -5 121 24
60 75 268 86 350 21 163 56 642 53 740 0 25 -1 135 0 245 1 425 0 439 -17 520
-43 196 -144 471 -209 567 -10 16 -15 33 -11 39 5 8 3 9 -6 4 -10 -6 -12 -4
-7 9 4 9 3 15 -2 11 -6 -3 -24 16 -42 41 -18 26 -26 43 -18 39 8 -5 2 3 -13
18 -30 28 -36 42 -15 34 11 -4 10 2 -2 29 -9 19 -21 32 -28 30 -7 -3 -10 1 -7
8 3 8 -4 20 -15 28 -12 8 -18 18 -13 23 4 5 2 5 -4 2 -14 -8 -38 18 -30 31 8
13 -38 54 -49 45 -5 -5 -3 0 4 10 12 15 12 17 -3 11 -19 -7 -71 39 -61 56 3 5
1 10 -5 10 -6 0 -8 5 -4 12 4 6 3 8 -3 5 -12 -8 -56 36 -46 46 3 4 2 7 -4 7
-6 0 -22 18 -37 40 -21 32 -23 38 -8 34 9 -2 7 1 -5 7 -13 7 -23 19 -23 27 0
8 -8 21 -17 29 -10 8 -13 12 -6 8 7 -3 1 13 -12 37 -16 28 -21 46 -14 54 6 8
5 14 -6 18 -9 3 -13 2 -10 -4 3 -6 3 -10 -2 -10 -9 0 -39 61 -35 73 1 4 -3 7
-8 7 -6 0 -15 12 -20 26 -6 15 -20 40 -32 57 -13 18 -21 43 -20 60 2 20 -5 36
-22 52 -14 13 -22 26 -18 31 4 4 1 4 -5 0 -8 -4 -20 5 -31 24 -10 16 -38 50
-60 74 -23 25 -42 51 -42 59 0 8 -10 22 -22 31 -13 9 -18 15 -12 12 6 -3 11 1
11 9 0 10 -5 11 -19 4 -17 -9 -22 -5 -19 13 0 4 -10 15 -24 24 -23 15 -37 53
-15 39 6 -4 8 -11 5 -16 -4 -5 -1 -9 4 -9 15 0 14 15 -3 29 -9 8 -16 9 -21 2
-3 -6 -18 0 -35 16 -17 14 -28 29 -25 31 3 3 11 -3 18 -13 13 -16 14 -17 20
-1 4 9 3 15 -1 12 -10 -6 -47 22 -39 30 4 4 13 2 20 -4 10 -9 14 -8 14 3 0 8
-4 12 -8 9 -4 -2 -14 2 -22 11 -13 13 -16 13 -21 -1 -4 -10 -2 -13 6 -8 7 4 8
3 4 -4 -4 -6 -14 -8 -22 -5 -9 3 -12 9 -7 12 14 9 24 41 13 41 -16 0 -22 4
-55 35 -17 17 -29 35 -26 40 3 6 -1 6 -10 -1 -8 -5 -20 -9 -26 -8 -7 1 -19 2
-25 3 -7 1 1 11 17 22 17 12 22 18 13 15 -27 -9 -44 -13 -35 -9 13 8 7 25 -8
20 -8 -4 -17 -1 -21 5 -4 7 -3 8 4 4 7 -4 12 -2 12 3 0 10 -21 15 -57 14 -6 0
-9 6 -6 13 6 16 14 18 29 7 5 -5 1 0 -9 9 -10 10 -13 19 -7 23 5 3 10 11 10
18 0 6 -6 3 -13 -8 -13 -17 -15 -17 -45 0 -17 10 -28 23 -25 28 3 6 1 7 -5 3
-6 -3 -17 1 -26 10 -9 8 -32 16 -51 17 -21 1 -35 7 -35 15 0 10 -5 9 -17 -4
-11 -11 -18 -13 -21 -5 -2 6 -10 11 -18 11 -8 0 -14 5 -14 10 0 6 -5 10 -11
10 -7 0 -23 12 -36 28 -13 15 -23 20 -21 12 2 -8 10 -20 18 -27 21 -17 -1 -15
-24 2 -12 9 -16 20 -12 32 6 14 5 16 -5 6 -15 -15 -33 -17 -24 -3 3 6 1 10 -5
10 -6 0 -9 4 -5 9 3 6 -4 15 -16 22 -18 9 -19 13 -8 21 12 8 11 9 -1 5 -8 -2
-14 -9 -13 -15 1 -5 -3 -12 -10 -15 -8 -3 -14 5 -15 20 -1 17 2 22 11 17 6 -4
9 -3 4 1 -4 5 -16 9 -26 10 -16 1 -17 -1 -8 -16 9 -14 8 -22 -1 -31 -11 -11
-12 -10 -7 3 4 10 1 20 -6 25 -8 4 -10 3 -5 -4 8 -14 -20 -12 -43 3 -8 5 -26
9 -39 10 -13 0 -27 7 -32 15 -6 10 -10 11 -10 3 0 -7 -7 -10 -15 -7 -8 4 -13
9 -10 13 2 4 -6 7 -18 6 -12 -1 -50 4 -86 12 -35 7 -66 11 -68 9 -3 -2 -19 0
-36 5 -57 16 -110 21 -242 20 -208 -1 -357 -25 -498 -80 -42 -16 -42 -16 -43
42 0 63 -11 147 -23 179 -16 44 -22 80 -12 74 10 -7 9 19 -2 30 -4 4 -1 14 6
22 10 13 9 14 -2 7 -11 -6 -13 -4 -8 9 7 18 -15 53 -65 104 -27 26 -106 31
-149 8 -15 -8 -32 -10 -40 -5 -7 4 -17 5 -21 3 -5 -3 -21 -8 -36 -10 -15 -3
-52 -13 -82 -24 -30 -11 -68 -21 -83 -24 -16 -3 -43 -16 -60 -29 -45 -33 -134
-77 -141 -70 -3 4 -6 -1 -6 -10 0 -9 -5 -19 -12 -23 -7 -5 -9 -2 -4 7 5 9 3 9
-6 -1 -7 -9 -29 -27 -48 -40 -19 -13 -41 -31 -49 -38 -8 -8 -30 -24 -50 -37
-20 -12 -51 -37 -70 -54 -19 -17 -44 -31 -56 -31 -26 0 -89 -66 -79 -82 4 -6
3 -8 -3 -5 -6 4 -16 0 -23 -8 -7 -8 -17 -12 -23 -8 -5 3 -7 1 -4 -4 4 -6 -12
-28 -36 -50 -67 -62 -154 -159 -194 -216 -78 -112 -75 -108 -93 -92 -9 8 -21
15 -27 15 -5 0 -18 10 -29 21 -31 35 -244 222 -304 266 -30 23 -91 56 -135 74
-44 18 -89 40 -100 50 -11 9 -45 29 -75 44 -30 15 -69 38 -87 51 -38 28 -238
124 -259 124 -9 0 -12 5 -8 13 4 6 4 9 0 5 -9 -7 -117 31 -127 45 -3 5 -8 7
-11 5 -2 -1 -42 16 -88 38 -108 53 -156 74 -168 74 -5 0 -15 7 -22 15 -12 14
-105 53 -141 58 -10 2 -22 6 -25 10 -4 4 -17 7 -28 7 -12 0 -57 12 -101 26
-74 23 -285 73 -330 77 -11 2 -25 5 -30 9 -15 9 -64 17 -195 32 -30 4 -73 9
-95 12 -92 11 -534 14 -615 3 -47 -6 -110 -12 -140 -13 -31 -1 -62 -6 -69 -11
-10 -6 -12 -4 -6 6 8 12 6 12 -8 0 -13 -10 -24 -11 -44 -3 -100 38 -269 52
-593 50 -162 -1 -311 -3 -330 -5z m6900 -768 c0 -12 -19 -12 -23 0 -4 9 -1 12
9 8 7 -3 14 -7 14 -8z m310 -161 c0 -1 -6 -6 -12 -10 -7 -4 -10 -4 -6 1 4 4
-3 16 -15 27 l-22 19 28 -17 c15 -9 27 -18 27 -20z m65 -43 c-9 -8 -55 -9 -50
-1 3 5 1 11 -5 15 -6 4 -8 10 -5 15 3 5 19 1 35 -8 16 -9 27 -18 25 -21z
m1015 -1326 c7 -8 9 -15 6 -15 -4 0 -14 7 -22 15 -9 8 -11 15 -6 15 5 0 15 -7
22 -15z m90 -135 c0 -5 -2 -10 -4 -10 -3 0 -8 5 -11 10 -3 6 -1 10 4 10 6 0
11 -4 11 -10z m-11183 -8744 c-3 -7 4 -12 14 -12 14 0 15 3 7 13 -8 10 -7 12
6 7 9 -3 16 -12 16 -20 0 -8 9 -14 20 -14 11 0 20 -5 20 -11 0 -5 5 -7 10 -4
6 3 10 1 10 -4 0 -6 9 -11 19 -11 11 0 22 -4 25 -8 3 -5 30 -15 61 -22 30 -7
55 -17 55 -21 0 -5 7 -6 15 -3 8 4 15 2 15 -3 0 -5 20 -9 45 -9 32 1 45 -3 45
-13 0 -10 3 -11 14 -2 10 9 16 9 21 1 4 -6 13 -9 21 -6 7 3 16 0 20 -6 4 -6 3
-8 -4 -4 -6 3 -13 2 -16 -3 -7 -10 20 -9 30 2 4 3 19 0 35 -9 16 -8 32 -14 36
-12 12 2 54 -63 47 -73 -3 -5 -2 -8 3 -7 14 4 88 -72 112 -115 l21 -38 -35
-30 c-19 -17 -35 -37 -35 -44 0 -7 -7 -18 -15 -25 -8 -6 -14 -15 -13 -18 2
-21 -6 -32 -38 -51 -42 -25 -77 -20 -156 20 -10 5 -26 9 -36 9 -10 0 -22 4
-27 9 -10 8 -102 61 -155 87 -50 26 -137 137 -161 206 -7 20 -17 34 -22 31 -6
-3 -7 -1 -4 4 9 14 -3 74 -13 68 -4 -2 -6 6 -5 19 2 14 -3 35 -10 49 -19 37
-24 96 -7 90 7 -3 11 -11 9 -17z m10853 -86 c0 -5 -12 -12 -27 -16 -16 -3 -50
-12 -77 -20 -27 -8 -54 -14 -60 -13 -12 0 29 18 54 24 8 2 33 10 55 18 51 19
55 19 55 7z m-181 -54 c-2 -2 -17 -6 -34 -10 -22 -5 -26 -4 -15 4 14 9 59 15
49 6z m-79 -20 c0 -10 -125 -46 -180 -52 -47 -5 -22 5 80 32 95 25 100 26 100
20z m-9597 -558 c16 -16 33 -28 38 -28 5 0 9 -5 9 -11 0 -5 4 -8 9 -5 5 4 20
-6 33 -22 12 -15 41 -38 63 -52 22 -13 47 -32 55 -40 13 -14 14 -14 6 0 -5 8
4 2 20 -15 17 -16 29 -32 28 -35 -2 -4 8 -6 22 -6 13 0 24 4 24 9 0 4 5 5 10
2 6 -4 7 -11 4 -17 -4 -6 -2 -8 3 -5 6 4 16 0 23 -8 7 -8 16 -13 20 -10 4 3
19 -5 34 -16 l26 -21 -42 -34 c-24 -19 -63 -56 -87 -82 -24 -26 -40 -40 -37
-32 5 10 2 9 -7 -2 -8 -10 -17 -15 -20 -11 -4 3 -7 2 -7 -4 0 -12 -74 -22
-204 -28 -73 -4 -103 0 -174 21 -47 13 -89 29 -93 35 -5 8 -9 8 -14 0 -4 -8
-11 -9 -18 -3 -7 5 -30 15 -52 22 -22 7 -45 16 -51 21 -6 5 -14 6 -17 2 -4 -3
-15 1 -24 9 -10 8 -35 23 -56 32 -21 10 -58 31 -81 47 -24 15 -63 37 -87 48
-24 10 -64 40 -89 65 -24 25 -48 46 -52 46 -18 0 -78 64 -69 73 5 5 7 16 4 24
-5 13 -3 14 18 2 13 -7 30 -14 37 -15 8 -1 21 -6 30 -10 9 -4 24 -8 32 -9 8
-1 37 -8 64 -14 27 -7 109 -11 183 -10 83 0 138 -3 146 -10 8 -6 31 -10 52 -9
31 1 53 13 107 56 37 30 65 58 62 63 -3 5 -1 9 4 9 5 0 8 18 7 39 l-2 40 40
-37 c23 -20 54 -49 70 -64z m-868 -28 c-3 -5 -1 -10 6 -10 7 0 10 -2 7 -5 -3
-3 -13 -2 -22 1 -14 5 -15 9 -4 15 17 11 20 11 13 -1z m6533 0 c-1 -19 4 -23
12 -10 8 13 10 12 10 -3 0 -10 5 -15 10 -12 6 3 10 1 10 -5 0 -7 -9 -9 -22 -5
l-23 6 24 -20 c13 -12 19 -21 15 -21 -5 0 -32 -20 -59 -45 -28 -25 -53 -45
-57 -45 -4 0 -24 -15 -45 -32 -20 -18 -33 -26 -29 -18 4 8 0 6 -9 -5 -9 -11
-23 -19 -31 -17 -8 2 -39 -11 -69 -28 -62 -36 -222 -93 -236 -85 -5 4 -9 2 -9
-3 0 -11 -190 -30 -196 -20 -3 5 -14 3 -25 -2 -10 -6 -19 -7 -19 -3 0 4 -41 9
-92 10 -50 1 -96 7 -102 13 -7 7 -6 10 1 10 7 0 27 14 45 30 18 17 36 30 40
30 3 0 13 6 20 13 7 7 45 32 83 56 39 24 72 48 73 53 2 4 8 8 13 8 6 0 21 10
34 23 132 125 137 129 153 121 9 -5 94 -9 189 -10 95 -1 177 -5 183 -9 6 -4 7
1 3 11 -4 12 -2 15 8 12 8 -3 13 -12 11 -19 -3 -11 -1 -11 9 -2 6 6 18 9 25 6
8 -3 14 0 14 5 0 6 -9 9 -20 7 -11 -2 -18 0 -15 5 6 9 74 9 73 0z m432 -811
c-36 -34 -82 -77 -102 -97 -20 -20 -40 -34 -43 -30 -8 7 -62 -44 -57 -54 2 -5
-4 -8 -12 -8 -9 0 -16 -4 -16 -10 0 -5 -3 -9 -7 -8 -12 4 -73 -26 -73 -34 0
-5 -7 -8 -15 -8 -8 0 -24 -10 -36 -22 -12 -13 -18 -17 -14 -9 5 9 3 12 -6 9
-8 -3 -14 -10 -14 -16 0 -5 -4 -14 -9 -19 -5 -5 -6 -3 -2 5 4 6 3 12 -3 12 -5
0 -15 -8 -20 -17 -6 -10 -11 -14 -11 -10 0 5 -6 5 -12 0 -7 -4 -19 -8 -26 -9
-8 -2 -21 -9 -31 -18 -19 -17 -118 -63 -153 -70 -13 -3 -43 -10 -67 -16 -78
-19 -91 -7 -21 19 107 39 440 205 522 261 44 29 83 48 89 44 7 -4 9 -3 5 4 -4
6 17 26 48 47 30 20 74 54 98 75 69 62 60 46 -12 -21z m3804 -517 c3 -5 -1 -9
-9 -9 -8 0 -12 4 -9 9 3 4 7 8 9 8 2 0 6 -4 9 -8z m-8823 -279 c13 -17 12 -17
-4 -4 -16 13 -20 13 -28 0 -5 -8 -9 -9 -9 -3 0 27 22 31 41 7z m-2704 -2895
c-3 -8 -6 -5 -6 6 -1 11 2 17 5 13 3 -3 4 -12 1 -19z m27 -147 c4 -5 -3 -7
-14 -4 -23 6 -26 13 -6 13 8 0 17 -4 20 -9z m-14 -203 c0 -13 -23 -5 -28 10
-2 7 2 10 12 6 9 -3 16 -11 16 -16z m-3 -49 c2 -17 -1 -18 -12 -9 -8 7 -12 16
-9 21 9 16 20 10 21 -12z m2623 -1564 c0 -2 -5 -7 -12 -11 -7 -5 -8 -3 -3 6 6
9 4 12 -7 8 -8 -4 -15 0 -15 7 0 10 5 11 19 4 10 -5 18 -12 18 -14z m175 -53
c-3 -3 -11 0 -18 7 -9 10 -8 11 6 5 10 -3 15 -9 12 -12z m-11 -48 c3 -8 2 -12
-4 -9 -6 3 -10 10 -10 16 0 14 7 11 14 -7z m113 -29 c-7 -18 9 -30 19 -14 5 8
3 9 -6 4 -9 -6 -11 -4 -5 4 5 9 10 10 18 2 8 -8 8 -14 1 -21 -12 -12 -44 -3
-44 12 0 5 -6 6 -12 2 -9 -5 -9 -2 1 9 17 21 35 22 28 2z m128 5 c-3 -5 -12
-10 -18 -10 -7 0 -6 4 3 10 19 12 23 12 15 0z m1564 -44 c-3 -3 -11 5 -18 17
-13 21 -12 21 5 5 10 -10 16 -20 13 -22z m126 -15 c3 -5 2 -12 -3 -15 -5 -3
-9 1 -9 9 0 17 3 19 12 6z m595 -1 c-8 -5 -19 -10 -25 -10 -5 0 -3 5 5 10 8 5
20 10 25 10 6 0 3 -5 -5 -10z m-620 -20 c0 -5 -2 -10 -4 -10 -3 0 -8 5 -11 10
-3 6 -1 10 4 10 6 0 11 -4 11 -10z m65 0 c3 -5 1 -10 -4 -10 -6 0 -11 5 -11
10 0 6 2 10 4 10 3 0 8 -4 11 -10z m40 -8 c-3 -3 -11 0 -18 7 -9 10 -8 11 6 5
10 -3 15 -9 12 -12z m-1675 -12 c0 -4 -7 -11 -16 -14 -13 -5 -14 -4 -6 7 7 8
8 18 4 22 -4 5 -1 5 6 1 6 -4 12 -11 12 -16z m-60 -5 c0 -12 -19 -12 -23 0 -4
9 -1 12 9 8 7 -3 14 -7 14 -8z m1895 -3 c-3 -3 -11 0 -18 7 -9 10 -8 11 6 5
10 -3 15 -9 12 -12z m-965 -12 c-8 -5 -19 -10 -25 -10 -5 0 -3 5 5 10 8 5 20
10 25 10 6 0 3 -5 -5 -10z m-166 -25 c-9 -14 -18 -25 -21 -25 -5 0 5 18 20 38
17 22 18 13 1 -13z m1056 14 c0 -5 4 -7 10 -4 6 4 7 -1 3 -11 -4 -11 -8 -13
-11 -6 -2 7 -7 10 -11 8 -4 -3 -8 1 -8 9 0 8 4 15 9 15 4 0 8 -5 8 -11z m48
-13 c-8 -6 -15 -15 -16 -21 0 -5 -5 -10 -11 -11 -7 -2 -8 -1 -1 3 5 2 8 9 4
14 -3 5 2 12 10 15 9 3 13 11 9 17 -4 6 -1 7 7 2 10 -6 10 -10 -2 -19z m-1690
-5 c-7 -9 -13 -18 -15 -20 -1 -2 -1 5 0 16 0 11 7 20 14 20 10 0 10 -4 1 -16z
m562 15 c0 -3 -4 -8 -10 -11 -5 -3 -10 -1 -10 4 0 6 5 11 10 11 6 0 10 -2 10
-4z m1247 -11 c0 -8 -4 -12 -9 -9 -5 3 -6 10 -3 15 9 13 12 11 12 -6z m-1767
-15 c-8 -5 -18 -6 -22 -4 -4 3 -8 -3 -8 -13 0 -11 8 -19 19 -20 14 -1 18 3 14
13 -3 8 -1 14 5 14 6 0 9 -8 8 -17 -2 -10 -9 -18 -17 -18 -8 0 -17 -4 -21 -9
-8 -12 -22 39 -15 51 3 5 16 9 29 10 17 2 19 0 8 -7z m1680 1 c0 -5 -7 -11
-14 -14 -10 -4 -13 -1 -9 9 6 15 23 19 23 5z m-1599 -18 c13 -16 12 -17 -3 -4
-17 13 -22 21 -14 21 2 0 10 -8 17 -17z m75 -9 c1 -9 0 -13 -4 -10 -3 4 -7 14
-8 22 -1 9 0 13 4 10 3 -4 7 -14 8 -22z m-26 12 c0 -2 -8 -10 -17 -17 -16 -13
-17 -12 -4 4 13 16 21 21 21 13z m70 0 c0 -2 -7 -7 -16 -10 -8 -3 -12 -2 -9 4
6 10 25 14 25 6z m191 -23 c-12 -20 -14 -14 -5 12 4 9 9 14 11 11 3 -2 0 -13
-6 -23z m174 18 c3 -6 -4 -15 -15 -21 -11 -6 -18 -15 -15 -20 3 -5 -4 -8 -15
-7 -17 1 -19 3 -7 12 7 5 13 16 11 23 -1 7 0 8 2 3 3 -6 12 -7 20 -4 13 5 13
7 2 14 -9 6 -9 9 -1 9 6 0 14 -4 18 -9z m-388 -50 c0 -11 -5 -18 -9 -15 -4 3
-5 11 -1 19 7 21 12 19 10 -4z m183 9 c-8 -5 -19 -10 -25 -10 -5 0 -3 5 5 10
8 5 20 10 25 10 6 0 3 -5 -5 -10z m-69 -23 c-10 -9 -11 -8 -5 6 3 10 9 15 12
12 3 -3 0 -11 -7 -18z"/>
<path d="M16622 18694 c10 -10 20 -16 22 -13 3 3 -5 11 -17 18 -21 13 -21 12
-5 -5z"/>
<path d="M6995 8320 c3 -5 8 -10 11 -10 2 0 4 5 4 10 0 6 -5 10 -11 10 -5 0
-7 -4 -4 -10z"/>
<path d="M7176 8198 c3 -5 10 -6 15 -3 13 9 11 12 -6 12 -8 0 -12 -4 -9 -9z"/>
<path d="M13220 7721 c0 -6 4 -11 10 -11 5 0 7 -7 4 -15 -4 -8 -11 -12 -17 -8
-6 3 -7 1 -3 -5 10 -16 14 -15 25 7 8 14 7 22 -4 31 -11 9 -15 9 -15 1z"/>
<path d="M13250 7664 c0 -8 5 -12 10 -9 6 4 8 11 5 16 -9 14 -15 11 -15 -7z"/>
<path d="M16135 18959 c-3 -4 2 -6 10 -5 21 3 28 13 10 13 -9 0 -18 -4 -20 -8z"/>
<path d="M16166 18934 c-5 -14 -4 -15 9 -4 17 14 19 20 6 20 -5 0 -12 -7 -15
-16z"/>
<path d="M13869 18883 c-13 -16 -12 -17 4 -4 9 7 17 15 17 17 0 8 -8 3 -21
-13z"/>
<path d="M16440 18800 c8 -5 20 -10 25 -10 6 0 3 5 -5 10 -8 5 -19 10 -25 10
-5 0 -3 -5 5 -10z"/>
<path d="M16775 18650 c-4 -6 -12 -7 -18 -4 -7 4 -8 3 -4 -1 13 -15 34 -14 34
1 0 17 -4 18 -12 4z"/>
<path d="M16845 18550 c10 -11 20 -20 23 -20 3 0 -3 9 -13 20 -10 11 -20 20
-23 20 -3 0 3 -9 13 -20z"/>
<path d="M16975 18430 c-3 -6 1 -7 9 -4 18 7 21 14 7 14 -6 0 -13 -4 -16 -10z"/>
<path d="M17021 18343 c-1 -6 4 -15 9 -18 6 -4 7 -12 4 -18 -4 -7 -3 -8 1 -4
12 10 16 39 5 32 -5 -3 -11 1 -13 7 -4 9 -6 10 -6 1z"/>
<path d="M17421 17728 c5 -10 15 -18 22 -18 8 0 8 3 -2 9 -7 5 -11 13 -8 18 3
5 0 10 -8 10 -10 0 -11 -5 -4 -19z"/>
<path d="M17451 17693 c-1 -17 16 -25 25 -12 4 7 3 9 -4 5 -5 -3 -13 0 -15 6
-4 9 -6 10 -6 1z"/>
<path d="M2243 13694 c0 -7 6 -10 14 -7 7 3 13 8 13 12 0 4 -6 8 -13 8 -8 0
-14 -6 -14 -13z"/>
<path d="M2145 13480 c-3 -6 1 -7 9 -4 18 7 21 14 7 14 -6 0 -13 -4 -16 -10z"/>
<path d="M2064 13361 c6 -8 2 -11 -10 -9 -11 2 -18 -2 -17 -9 1 -6 -4 -14 -12
-17 -10 -3 -12 0 -8 11 5 12 1 11 -14 -4 -28 -28 -25 -106 5 -132 27 -23 77
-22 77 2 0 9 3 16 6 14 3 -1 14 4 23 12 12 10 14 17 6 25 -15 15 -12 25 8 21
22 -4 27 31 6 39 -9 3 -12 11 -8 18 6 10 4 10 -6 1 -12 -11 -11 -15 5 -26 14
-11 15 -16 5 -22 -9 -5 -11 -4 -6 3 10 16 -9 15 -23 -1 -8 -10 -7 -17 2 -27
10 -10 9 -11 -2 -5 -9 5 -12 4 -7 -3 5 -8 1 -10 -10 -5 -14 5 -16 3 -11 -11 4
-9 3 -15 -2 -11 -5 3 -12 1 -16 -5 -3 -5 -1 -10 5 -10 6 0 8 -5 4 -11 -4 -8
-9 -7 -15 2 -4 7 -5 17 -3 21 8 13 -11 9 -25 -4 -11 -11 -12 -10 -6 1 6 10 4
12 -5 6 -9 -6 -11 -4 -5 5 4 7 2 16 -6 21 -10 6 -10 9 -2 9 7 0 10 7 7 18 -4
10 -2 13 3 7 11 -13 43 -18 43 -7 0 5 -7 9 -15 10 -8 1 -22 3 -30 4 -21 2 -18
15 5 21 12 3 18 1 14 -5 -4 -6 3 -5 15 1 11 7 21 8 21 4 0 -4 4 -1 10 7 5 8
12 11 17 7 4 -5 1 -12 -7 -17 -10 -6 -11 -10 -3 -10 19 0 37 40 24 53 -8 8
-11 8 -11 -1 0 -7 -5 -12 -11 -12 -5 0 -8 4 -4 9 3 5 0 13 -6 17 -8 5 -9 3 -5
-5z m6 -26 c0 -2 -6 -5 -13 -8 -8 -3 -14 1 -14 8 0 7 6 11 14 8 7 -3 13 -6 13
-8z m-30 -135 c0 -5 -2 -10 -4 -10 -3 0 -8 5 -11 10 -3 6 -1 10 4 10 6 0 11
-4 11 -10z"/>
<path d="M2052 13289 c2 -18 -2 -24 -17 -24 -11 0 -19 -3 -17 -8 1 -4 2 -12 2
-18 0 -8 5 -8 15 1 10 9 15 9 15 1 0 -6 8 -3 18 7 10 9 17 19 15 21 -2 2 5 14
14 25 17 20 17 20 1 7 -15 -11 -21 -11 -33 -1 -13 11 -15 9 -13 -11z"/>
<path d="M16775 7780 c-3 -5 -1 -10 4 -10 6 0 11 5 11 10 0 6 -2 10 -4 10 -3
0 -8 -4 -11 -10z"/>
<path d="M16750 7761 c0 -5 7 -12 16 -15 14 -5 15 -4 4 9 -14 17 -20 19 -20 6z"/>
<path d="M3755 7640 c-3 -5 -1 -10 4 -10 6 0 11 5 11 10 0 6 -2 10 -4 10 -3 0
-8 -4 -11 -10z"/>
<path d="M3990 7495 c0 -13 39 -42 48 -36 6 4 -2 14 -19 23 -16 9 -29 15 -29
13z"/>
<path d="M17598 7023 c6 -2 9 -10 6 -15 -4 -7 -2 -8 5 -4 13 9 5 26 -12 25 -9
0 -8 -2 1 -6z"/>
<path d="M17226 6178 c3 -5 10 -6 15 -3 13 9 11 12 -6 12 -8 0 -12 -4 -9 -9z"/>
<path d="M5896 3158 c3 -4 11 -5 19 -1 21 7 19 12 -4 10 -11 0 -18 -5 -15 -9z"/>
<path d="M5891 3047 c-8 -10 -7 -14 2 -14 8 0 14 6 14 14 0 7 -1 13 -2 13 -2
0 -8 -6 -14 -13z"/>
<path d="M5840 3046 c0 -2 8 -10 18 -17 15 -13 16 -12 3 4 -13 16 -21 21 -21
13z"/>
<path d="M5892 3011 c-11 -6 -10 -10 0 -19 11 -8 14 -7 14 9 0 10 0 19 -1 19
0 0 -6 -4 -13 -9z"/>
<path d="M5907 2959 c7 -7 15 -10 18 -7 3 3 -2 9 -12 12 -14 6 -15 5 -6 -5z"/>
<path d="M5868 2903 c7 -3 16 -2 19 1 4 3 -2 6 -13 5 -11 0 -14 -3 -6 -6z"/>
<path d="M5899 2898 c-5 -18 -6 -38 -1 -34 7 8 12 36 6 36 -2 0 -4 -1 -5 -2z"/>
<path d="M5916 2853 c-6 -14 -5 -15 5 -6 7 7 10 15 7 18 -3 3 -9 -2 -12 -12z"/>
<path d="M5860 2846 c0 -2 8 -10 18 -17 15 -13 16 -12 3 4 -13 16 -21 21 -21
13z"/>
<path d="M5906 2815 c4 -8 11 -15 16 -15 6 0 5 6 -2 15 -7 8 -14 15 -16 15 -2
0 -1 -7 2 -15z"/>
<path d="M6486 1712 c-3 -5 1 -9 9 -9 8 0 12 4 9 9 -3 4 -7 8 -9 8 -2 0 -6 -4
-9 -8z"/>
<path d="M6491 1679 c-1 -19 26 -45 36 -35 3 3 1 6 -6 6 -7 0 -9 5 -5 12 4 6
3 8 -4 4 -6 -3 -13 2 -15 11 -4 15 -5 15 -6 2z"/>
<path d="M8790 1146 c7 -7 13 -7 20 0 6 6 3 10 -10 10 -13 0 -16 -4 -10 -10z"/>
<path d="M8713 1125 c0 -8 4 -12 9 -9 5 3 6 10 3 15 -9 13 -12 11 -12 -6z"/>
<path d="M8764 1118 c-3 -4 5 -5 17 -3 30 6 36 14 9 12 -12 -1 -24 -5 -26 -9z"/>
<path d="M8935 1111 c-3 -6 -4 -15 -1 -20 4 -5 0 -11 -6 -14 -7 -3 -4 -5 8 -4
13 1 20 7 19 19 -2 23 -11 32 -20 19z"/>
<path d="M10120 1086 c0 -2 7 -6 15 -10 8 -3 15 -1 15 4 0 6 -7 10 -15 10 -8
0 -15 -2 -15 -4z"/>
<path d="M11136 1037 c-16 -12 -16 -13 2 -13 10 0 19 6 19 13 0 7 -1 13 -2 13
-1 0 -9 -6 -19 -13z"/>
<path d="M10725 1009 c-4 -6 -5 -12 -2 -15 2 -3 7 2 10 11 7 17 1 20 -8 4z"/>
<path d="M10779 991 c11 -7 11 -9 0 -14 -8 -3 -4 -4 9 -4 26 1 29 12 6 21 -23
9 -31 7 -15 -3z"/>
<path d="M9075 981 c-3 -5 -2 -12 3 -15 5 -3 9 1 9 9 0 17 -3 19 -12 6z"/>
<path d="M10955 970 c3 -5 8 -10 11 -10 2 0 4 5 4 10 0 6 -5 10 -11 10 -5 0
-7 -4 -4 -10z"/>
</g>
</svg>
