<?xml version="1.0" encoding="utf-8"?>
<!-- Generator: Adobe Illustrator 25.0.0, SVG Export Plug-In . SVG Version: 6.00 Build 0)  -->
<svg version="1.1" xmlns="http://www.w3.org/2000/svg" xmlns:xlink="http://www.w3.org/1999/xlink" x="0px" y="0px" width="210px"
	 height="80px" viewBox="0 0 210 80" style="enable-background:new 0 0 210 80;" xml:space="preserve">
<g id="Layer_3">
</g>
<g id="Layer_2">
</g>
<g id="Layer_1">
	<g>
		<path d="M102.8,14.4c0.1,0.4,0.1,0.7,0.6,1c0-0.3-0.1-0.5-0.3-0.7c-0.2-0.2-0.1-0.3,0.1-0.3c0.2,0,0.4,0,0.7,0c3.4,0,6.9,0,10.3,0
			c0.9,0,1.9,0.1,2.8,0c0.9-0.1,1.5,0.4,2.1,0.9c0.4,0.3,0.6,0.8,1,1.1c0.2,0.2,0,0.3-0.1,0.3c-0.3,0-0.5,0-0.8,0c-5,0-10,0-15,0
			c-0.3,0-0.6,0-0.8-0.3c-0.1-0.2-0.4-0.3-0.4,0.1c-0.1,0.3-0.3,0.3-0.5,0.3c-0.4,0-0.9,0-1.3,0c-21.5,0-43,0-64.5,0
			c-0.4,0-0.6-0.1-0.7-0.6c-0.1-0.5-0.4-0.9-0.7-1.3c-0.1-0.1-0.2-0.2-0.3-0.1c-0.1,0.1,0,0.2,0,0.3c0.3,0.4,0.1,0.9,0.2,1.4
			c0,0.2-0.2,0.2-0.4,0.2c-0.3,0-0.6,0-0.9,0c-4.3,0-8.5,0-12.8,0c-0.6,0-1.1,0-1.7,0c-1.2,0-1.9,0.6-1.9,1.8c0,1.1,0,2.2,0,3.3
			c0,1-0.1,1.9-0.1,2.9c0,0.5,0.1,1,0.1,1.5c0,10.6,0,21.2,0,31.8c0,1.4-0.1,2.8-0.1,4.2c0,0.3-0.1,0.3-0.4,0.2
			c-0.2-0.1-0.4-0.2-0.5-0.1c-0.5,0.1-0.8-0.3-1.2-0.2c0,0-0.1-0.1-0.1-0.1c0-0.1,0.1-0.1,0.2-0.1c0.3-0.1,0.3-0.2,0-0.3
			C15,61.3,15,61.1,15,60.9c0.1-0.2,0-0.5,0-0.8c0.1-7.5,0-15,0-22.5c0-6,0-12,0-18c0-1,0.1-1.9,0.4-2.9c0.3-0.9,0.9-1.5,1.7-1.9
			c0.7-0.4,1.4-0.5,2.2-0.5c4.9,0,9.8,0,14.8,0c22.5,0,45,0,67.6,0c0.2,0,0.4,0,0.6,0.2C102.5,14.9,102.5,14.4,102.8,14.4z"/>
		<path d="M54.9,23.3c1.6,0,3.4-0.1,5.3,0.1c2.3,0.2,3.7,1.4,4,3.8c0.3,2.4,0.2,4.8,0,7.2c-0.1,1.5-1.4,2.9-2.9,3.3
			c-0.2,0-0.3,0.1-0.5,0.2c-0.2,0.1-0.3,0.2-0.2,0.4c0.4,1.1,0.8,2.3,1.3,3.4c0.5,1.2,0.9,2.5,1.4,3.7c0.3,0.7,0.6,1.4,0.9,2.2
			c0.2,0.6,0.2,0.7-0.4,0.7c-1.2,0-2.4,0-3.6,0c-0.3,0-0.4-0.1-0.5-0.4c-0.9-2.5-1.9-5-2.8-7.5c-0.3-0.7-0.5-1.3-0.7-2
			c-0.1-0.3-0.2-0.4-0.6-0.4c-0.7,0-1.3,0-2,0c-0.4,0-0.6,0.2-0.6,0.6c0,0.9,0,1.9,0.1,2.8c0,2.2,0,4.3,0,6.5c0,0.4-0.1,0.5-0.5,0.5
			c-1.2,0-2.3,0-3.5,0c-0.3,0-0.4-0.1-0.4-0.4c0-1.6,0-3.3,0-4.9c0-5.9,0-11.8,0-17.8c0-0.4,0-0.8-0.1-1.2c0-0.4,0.1-0.6,0.6-0.6
			C51,23.4,52.8,23.3,54.9,23.3z M56,27.7C56,27.7,56,27.7,56,27.7c-0.8,0-1.6,0-2.4,0c-0.6,0-0.6,0-0.6,0.7c0,1.5,0,3.1,0,4.6
			c0,0.4,0.1,0.5,0.5,0.5c1.7,0,3.4,0,5.1,0c0.6,0,1.1-0.4,1.2-0.8c0.2-1.2,0.3-2.4,0.1-3.6c-0.1-1-0.5-1.3-1.6-1.4
			C57.6,27.7,56.8,27.7,56,27.7z"/>
		<path d="M83.6,36c0,2.4,0,4.9,0,7.3c0,1.5-0.4,2.8-1.5,3.8c-0.8,0.7-1.7,1.1-2.8,1.1c-2.4,0-4.9,0-7.3,0c-2,0-3.9-1.8-4.1-3.8
			c-0.2-2.1-0.1-4.2,0-6.3c0-0.7-0.1-1.4-0.1-2.1c0.1-2.9-0.3-5.9,0.1-8.8c0.2-1.7,1.1-2.9,2.6-3.6c0.5-0.2,1.1-0.3,1.7-0.3
			c2.2,0,4.4,0,6.6,0c1.6,0,2.9,0.5,3.9,1.9c0.7,1,0.9,2.2,0.9,3.4C83.6,31,83.6,33.5,83.6,36C83.6,36,83.6,36,83.6,36z M72.2,35.7
			C72.3,35.7,72.3,35.7,72.2,35.7c0,2.2,0,4.4,0,6.7c0,1,0.4,1.4,1.4,1.4c1.4,0,2.9,0,4.3,0c0.5,0,0.9-0.3,1.1-0.8
			c0.2-0.5,0.2-1,0.2-1.6c0-3.2,0-6.4,0-9.5c0-0.9,0.1-1.9,0-2.8c-0.1-0.9-0.4-1.2-1.2-1.3c-1.3-0.2-2.7-0.1-4-0.1
			c-1.3,0-1.8,0.5-1.8,1.8C72.3,31.6,72.2,33.7,72.2,35.7z M68.3,35c-0.1,0.4-0.1,0.6,0.1,0.9C68.4,35.6,68.4,35.4,68.3,35z"/>
		<path d="M167.2,16.5c0.6-0.4,1.1-0.6,1.7-0.8c0.2-0.1,0.4-0.1,0.5-0.3c0.2-0.2,0.3-0.3,0.6-0.2c0,0,0.1,0,0.1,0
			c0.4-0.6,1.3-0.4,1.7-1.1c0.1-0.2,0.3-0.1,0.4,0c0.2,0.2,0.4,0.3,0.6,0.3c6,0,12.1,0,18.1,0c1.9,0,3.7,1.3,4,3.5
			c0,0.1,0,0.2,0,0.2c-0.2,0.9,0.1,1.8,0,2.7c-0.1,1,0,1.9,0,2.9c0,0.9,0,1.9,0,2.8c0,0.9,0,1.9,0,2.8c0,4.5,0,8.9,0,13.4
			c0,3,0,6,0,9c0,2.8,0,5.7,0,8.5c0,0.8,0,1.6,0,2.4c0,1.5-1,3.3-2.6,3.7c-1,0.3-1.9,0.3-2.9,0.3c-5.4,0-10.8,0-16.2,0
			c-6.3,0-12.6,0-18.8,0c-0.2,0-0.4,0-0.5-0.1c-0.7-0.6-1.5-1-2.2-1.5c0,0,0,0,0,0c-0.2-0.2-0.5-0.3-0.5-0.5
			c0.1-0.3,0.4-0.1,0.6-0.1c6.6,0,13.2,0,19.8,0c6.4,0,12.8,0,19.2,0c1.1,0,2.1-0.9,2-2c-0.1-1.5,0-3-0.1-4.5c0-1.8,0-3.6,0-5.4
			c0-3.6,0-7.1,0.1-10.7c0-0.5,0-0.9,0.1-1.4c0.1-0.4-0.1-0.9-0.1-1.4c0-1.4-0.1-2.9,0-4.3c0.1-1.1,0.1-2.1,0-3.2
			c-0.1-1.2,0-2.5,0-3.7c0-1.7,0.1-3.4,0-5.1c-0.1-1.3,0-2.5,0.1-3.7c0-0.3,0-0.7-0.1-1c-0.3-0.9-0.7-1.4-1.6-1.4
			c-0.9-0.1-1.9-0.2-2.8,0.1c-0.3,0.1-0.7,0-1.1-0.1c-0.9-0.1-1.8-0.1-2.7-0.1c-5.5,0-10.9,0-16.4,0
			C167.8,16.6,167.4,16.7,167.2,16.5z"/>
		<path d="M95,23.3c1.4,0.1,2.8-0.1,4.1,0.1c1.8,0.2,3.2,1.5,3.6,3.3c0.1,0.4,0.1,0.8,0.2,1.2c0.1,0.4-0.1,0.6-0.4,0.6
			c-1.2,0.2-2.4,0.7-3.6,0.9c-0.3,0.1-0.3,0-0.4-0.3c-0.2-1-0.6-1.5-1.7-1.5c-1.4,0-2.7,0-4.1,0c-0.5,0-1,0.4-1.1,0.9
			c-0.3,1.2-0.2,2.3-0.1,3.5c0,0.7,0.5,1,1.1,1.1c1.3,0.3,2.6,0.6,3.9,0.8c1.4,0.2,2.9,0.5,4.1,1.2c1.1,0.6,1.8,1.5,2,2.7
			c0.4,2.3,0.3,4.6,0,6.9c-0.2,1.6-1.5,2.7-3,3c-0.9,0.2-1.8,0.3-2.8,0.3c-2,0-4,0.1-6-0.1c-1.7-0.2-3-1.4-3.4-3
			c-0.1-0.5-0.2-1-0.3-1.5c0-0.2,0-0.3,0.1-0.4c0.2-0.1,0.3-0.1,0.4,0c0.1,0.1,0.2,0.1,0.3,0.1c0.4-0.6,1-0.4,1.5-0.6
			c0.5-0.2,1-0.3,1.6-0.5c0.2-0.1,0.4,0,0.4,0.2c0.1,1,0.8,1.4,1.8,1.4c1.3,0,2.7,0,4,0c0.6,0,1.1-0.6,1.2-1.3
			c0.1-0.9,0.1-1.8,0-2.7c-0.1-0.7-0.5-1.1-1.3-1.3c-1.7-0.4-3.5-0.7-5.2-1c-1.6-0.3-3.1-0.8-4-2.3c-0.6-1-1-2-0.9-3.2
			c0.1-0.7,0.1-1.3,0-2c-0.2-1.4-0.1-2.8,0.4-4.1c0.5-1.3,1.5-2.3,3-2.6C92.1,23.2,93.6,23.4,95,23.3z"/>
		<path d="M160.8,33.1c0,4,0,7.2,0,10.5c0,1.6-0.6,3.1-2,4c-0.9,0.6-1.9,0.6-3,0.7c-2.1,0-4.2,0-6.3,0c-2.1,0-4.1-1.3-4.3-3.9
			c-0.1-1-0.1-1.9-0.1-2.9c0-3.7,0-7.3,0-11c0-0.4,0.1-0.6,0.4-0.8c0.2-0.1,0.4-0.4,0.6-0.6c0.9-1.1,2.1-1.9,3-3
			c0.2-0.3,0.6-0.3,1-0.4c0.1,0,0.2,0,0.2,0c0,0.1,0,0.2-0.1,0.2c-0.3,0.3-0.3,0.7-0.6,1c-0.2,0.2-0.2,0.4-0.2,0.6
			c0,4.8,0,9.6,0,14.4c0,0.3,0,0.5,0,0.8c0.1,0.8,0.5,1.2,1.3,1.3c0.9,0.1,1.8,0.1,2.7,0c0.5,0,1.1,0,1.6,0c1,0,1.5-0.5,1.6-1.4
			c0.1-0.8,0-1.5,0-2.3c0-4.9,0-9.8,0-14.8c0-0.5,0-1.1,0-1.6c0-0.4,0.1-0.5,0.5-0.5c1,0,2.1,0,3.1,0c0.7,0,0.8,0,0.8,0.8
			C160.7,27.4,160.8,30.6,160.8,33.1z"/>
		<path d="M33.6,36c0,2.1,0,4.2,0,6.4c0,0.8,0.4,1.2,1.1,1.4c0.3,0.1,0.6,0.1,0.9,0.1c1.2,0,2.4,0,3.6,0c0.8,0,1.1-0.3,1.3-1.1
			c0.2-0.6,0.1-0.6,0.8-0.5c1.1,0.3,2.2,0.5,3.3,0.8c0.2,0.1,0.4,0.1,0.4,0.4c0.1,1.6-1.1,3.7-2.6,4.3c-0.7,0.3-1.4,0.4-2.1,0.4
			c-2.1,0-4.3,0-6.4,0c-0.9,0-1.8-0.2-2.6-0.7c-1.2-0.7-1.7-1.9-1.9-3.2c-0.1-0.6-0.1-1.1-0.1-1.7c0-3.4-0.1-6.7,0-10.1
			c0-0.6,0-1.2-0.1-1.8c0-0.1,0-0.2,0-0.2c0.1-1.2,0-2.5,0.2-3.7c0.3-1.5,1.1-2.7,2.6-3.3c0.5-0.2,1.1-0.3,1.6-0.3
			c2.2,0,4.3,0,6.5,0c0.9,0,1.8,0.1,2.7,0.6c1.1,0.7,1.7,1.6,2,2.8c0.1,0.4,0.1,0.8,0.2,1.2c0.1,0.4-0.1,0.6-0.4,0.6
			c-1.2,0.2-2.3,0.6-3.5,0.9c-0.2,0-0.4,0-0.4-0.2c-0.2-1.1-0.5-1.4-1.6-1.5c-1.4-0.1-2.8-0.1-4.2,0c-0.7,0-1.1,0.4-1.2,1.1
			c-0.1,0.4-0.1,0.8-0.1,1.1C33.6,32,33.6,34,33.6,36C33.6,36,33.6,36,33.6,36z"/>
		<path d="M114.3,23.3c1.4,0.1,2.7-0.1,4,0.1c2.2,0.2,3.5,1.8,3.8,3.8c0.2,1,0.4,1.3-1,1.5c-0.9,0.1-1.8,0.6-2.7,0.7
			c-0.3,0-0.5,0.1-0.5-0.3c0-0.9-0.7-1.4-1.7-1.5c-1.2,0-2.4,0.1-3.5,0c-1.4-0.1-1.8,0.7-1.8,1.8c0,0.8,0,1.6,0,2.4
			c0,0.8,0.4,1.3,1.2,1.4c1.7,0.3,3.5,0.7,5.2,1c0.9,0.2,1.7,0.4,2.5,0.8c1.5,0.8,2.2,2.1,2.5,3.7c0.1,0.9,0,1.8,0,2.6
			c0,0.2-0.1,0.4-0.3,0.4c-1.2-0.1-2.3,0.1-3.4,0.3c-0.5,0.1-0.6-0.1-0.6-0.5c0-0.5,0-0.9,0-1.4c-0.1-0.9-0.5-1.4-1.3-1.6
			c-1.7-0.3-3.3-0.6-5-1c-1.3-0.3-2.6-0.6-3.6-1.5c-0.7-0.6-1.1-1.4-1.2-2.3c-0.4-2.5-0.5-4.9,0-7.4c0.3-1.5,2-2.9,3.3-3
			C111.5,23.3,112.9,23.4,114.3,23.3z"/>
		<path d="M172.2,23.3c2.5,0,5,0,7.4,0c0.4,0,0.4,0.1,0.4,0.4c0,1.2,0,2.3,0,3.5c0,0.5-0.3,0.4-0.6,0.4c-1.5,0-3,0-4.5,0
			c-0.7,0-0.7,0-0.7,0.7c0.1,5.8,0,11.5,0.1,17.3c0,0.7,0,1.4,0,2.2c0,0.3-0.1,0.5-0.4,0.5c-1.2,0-2.4,0-3.6,0
			c-0.2,0-0.3-0.1-0.3-0.3c0-4.2,0-8.4,0-12.6c0-2.4,0-4.7,0-7.1c0-0.5-0.2-0.6-0.6-0.6c-1.6,0-3.1,0-4.7,0c-0.3,0-0.5-0.1-0.4-0.4
			c0.1-1.1-0.1-2.2,0-3.3c0-0.4,0.1-0.6,0.6-0.6C167.3,23.4,169.8,23.3,172.2,23.3z"/>
		<path d="M17.2,63.2c0.2,0.1,0.3,0.1,0.3,0.2c0.3,0.9,1.1,1,1.9,1c0.6,0,1.2,0,1.8,0c0.6,0,1.2,0.1,1.8,0.4c0.1,0,0.1,0.1,0.2,0
			c0.5-0.6,1.2-0.5,1.9-0.4c0.3,0,0.5,0.1,0.8,0c9-0.1,18,0,27-0.1c4.4,0,8.9,0,13.3,0c0.8,0,1.7-0.1,2.5,0c1.2,0.2,2.5-0.1,3.7,0
			c1.3,0.1,2.5,0,3.8,0c1.3,0,2.5,0.1,3.8,0c1-0.1,2-0.2,2.9-0.6c0.1-0.1,0.3-0.1,0.4-0.2c0.1,0,0.3-0.1,0.3,0.1
			c0.1,0.1-0.1,0.2-0.2,0.3c-0.6,0.8-1.6,0.8-2.4,1.1c-0.1,0-0.2,0-0.2,0.1c-0.8,0.7-2,0.8-2.9,1.3c-0.3,0.2-0.6,0.2-1,0.2
			c-15.8,0-31.7,0-47.5,0c-0.1,0-0.3,0-0.4,0c-0.2,0-0.4,0-0.4-0.1c-0.1-0.2,0.2-0.2,0.3-0.3c0.3-0.3,0-0.6,0.1-0.9
			c0-0.2-0.2-0.3-0.3-0.4c-0.1,0-0.2,0-0.3,0.1c-0.2,0.3-0.4,0.3-0.6,0.1c-0.1-0.1-0.2-0.1-0.3-0.1c-0.1,0.1-0.1,0.2,0,0.3
			c0.3,0.3-0.2,0.5-0.1,0.8c0,0-0.2,0-0.2-0.1c-0.2-0.2-0.3-0.3-0.6-0.1c-0.1,0.1-0.3,0-0.3-0.1c0.4-0.5-0.3-0.3-0.3-0.5
			c0,0,0,0,0-0.1c0.1-0.1,0.4,0.1,0.3-0.2c-0.1-0.2-0.4-0.3-0.6-0.3c-0.1,0-0.3,0.1-0.4,0.1c-0.1-0.1,0.2-0.2,0-0.4
			c-0.1-0.1-0.1,0-0.2,0c-0.1,0.1-0.4,0.2-0.3,0.5c0.1,0.4,0,0.4-0.3,0.5c-0.3,0-0.5,0.2-0.6,0.5c0,0.1-0.2,0.2-0.3,0.2
			c-0.1,0.1-0.3,0.1-0.4-0.1c-0.1-0.1,0-0.3,0.1-0.3c0.2-0.1,0.3-0.3,0.2-0.5c0-0.1-0.1-0.3-0.2-0.3c-0.2,0-0.1,0.2-0.1,0.3
			c0,0.1,0,0.2-0.1,0.1c-0.4-0.1-0.7,0.4-1.1,0.1c-0.2-0.2-0.3,0.1-0.4,0.3c-0.1,0.9-0.1,0.9-1,0.8c-0.8,0-1.7,0-2.5-0.2
			c-0.9-0.2-1.6-0.6-2.2-1.3c-0.4-0.5-0.7-1-0.8-1.5c0-0.1-0.1-0.3,0-0.4c0.2-0.1,0.2,0.2,0.3,0.2c0.6,0,0.9,0.5,1.5,0.5
			c0.4,0,0.4-0.1,0.3-0.4C17.2,63.5,17.2,63.3,17.2,63.2z"/>
		<path d="M98.4,66.8c0.1-0.4,0.5-0.5,0.6-0.8c0-0.1,0.1-0.3,0-0.3c-0.1-0.1-0.2,0-0.3,0.1c-0.1,0.1-0.2,0.2-0.3,0.2
			c-0.5-0.1-0.6,0.3-0.7,0.6c0,0.3-0.2,0.4-0.4,0.4c-1.3,0.1-2.5,0.1-3.8,0.1c-1.4,0-2.8,0.1-4.2,0.5c-0.5,0.1-1.1,0.4-1.6,0.6
			c-0.1,0.1-0.3,0.1-0.5,0.1c-0.2,0-0.3-0.1-0.1-0.2c0.3-0.3,0.4-0.7,0.8-0.7c0.4-0.1,0.7-0.3,1-0.6c0.4-0.5,1-0.5,1.5-0.8
			c0.8-0.4,1.7-0.5,2.4-1c0.1-0.1,0.2-0.1,0.3-0.1c2.5-0.1,5.1-0.3,7.6-0.4c0.1,0,0.3,0,0.3,0.1c0.1,0.4,0.5,0.3,0.7,0.4
			c0.1,0,0.3,0,0.4,0.1c0.2,0.2,0.3,0.1,0.4-0.1c0.1-0.2,0.3-0.2,0.4-0.3c0.6-0.6,1.4-0.5,2.1-0.4c1.4,0,2.7-0.1,4.1-0.2
			c4.6-0.2,9.3-0.5,13.9-0.8c4.2-0.2,8.4-0.5,12.5-0.7c1-0.1,1.9-0.1,2.9-0.2c0.3,0,0.4,0.1,0.5,0.3c0,0.6,0.1,1.1,0.3,1.6
			c0.2,0.3-0.1,0.3-0.3,0.3c-1.6,0-3.3,0.2-4.9,0.3c-2.8,0.2-5.6,0.3-8.4,0.5c-4.4,0.3-8.9,0.5-13.3,0.7c-2.9,0.2-5.7,0.3-8.6,0.5
			c-1.4,0.1-2.8,0.1-4.2,0.3C99.1,66.9,98.8,66.5,98.4,66.8z"/>
		<path d="M165.3,14.1c-0.1,0.4-0.4,0.6-0.7,0.8c-0.5,0.4-0.9,0.8-1.1,1.3c-0.2,0.3-0.4,0.3-0.7,0.4c-1.9,0.1-3.8,0.1-5.7,0.2
			c-5.3,0.2-10.7,0.4-16,0.5c-2.3,0.1-4.6,0.1-7,0.2c-1.6,0-3.2,0.1-4.8,0.1c-0.8,0-1.6,0.2-2.4,0.5c-0.3,0.1-0.5,0.2-0.8-0.2
			c-0.4-0.5-0.7-1.1-1-1.6c-0.1-0.1-0.1-0.2-0.2-0.3c-0.1-0.1-0.3-0.2-0.2-0.4c0.1-0.2,0.3-0.1,0.4-0.1c4.2-0.1,8.3-0.3,12.5-0.4
			c0.4,0,0.7,0,1.1,0c0.4,0,0.8,0.2,1,0.1c0.3-0.3,0.7-0.2,1-0.2c1,0,2.1-0.1,3.1-0.1c2.8,0,5.7-0.2,8.5-0.3
			c3.7-0.1,7.5-0.2,11.2-0.3C164.2,14.3,164.7,14.1,165.3,14.1z"/>
		<path d="M133.8,23.3c1.1,0,2.1,0,3.2,0c2.1,0,3.6,1.1,4.4,3.2c0.1,0.3,0,0.6-0.2,0.8c-0.7,0.7-1,1.5-1.4,2.4c-0.4,0.7-1,1.3-1.5,2
			c-0.1,0.2-0.4,0.2-0.6,0.3c-0.3,0.1-0.5,0-0.4-0.3c0-0.8,0-1.7,0-2.5c0-1-0.5-1.4-1.4-1.5c-0.8-0.1-1.6-0.1-2.4,0
			c-0.5,0-1,0-1.1-0.6c0-0.1-0.1-0.1-0.2-0.2c-0.1-0.1-0.1-0.1-0.2-0.1c-0.1,0-0.1,0.2-0.1,0.3c0,0,0,0.1,0,0.1
			c0.3,0.5,0.1,0.6-0.4,0.7c-0.4,0.1-0.5-0.2-0.5-0.4c-0.1-0.6-0.2-1.3-0.3-1.9c-0.1-0.6-0.3-1.1-0.6-1.6c-0.1-0.1-0.2-0.2-0.1-0.3
			c0.1-0.1,0.2-0.1,0.3-0.1C131.4,23.3,132.6,23.3,133.8,23.3C133.8,23.3,133.8,23.3,133.8,23.3z"/>
		<path d="M130.1,41.9c0,0.2,0,0.5,0,0.7c0.2,0.9,0.5,1.2,1.4,1.3c1.1,0.1,2.2,0.1,3.3,0c0.3,0,0.5,0.1,0.6,0.3
			c0.4,0.6,0.7,1.2,0.6,2c-0.1,0.7,0.4,1.2,0.6,1.8c0,0.1,0.1,0.3,0.1,0.4c0,0.1,0.1,0.3,0,0.4c-0.2,0.1-0.2-0.1-0.3-0.2
			c-0.3-0.3-0.7-0.3-1.1-0.3c-1.7,0-3.4,0-5,0c-1.9,0-3.3-0.8-4.1-2.6c-0.2-0.6-0.4-1.2-0.4-1.8c0-0.4-0.1-0.6-0.5-0.7
			c-0.3-0.1-0.3-0.2-0.1-0.4c0.3-0.3,0.6-0.6,1-0.7c0.6-0.2,0.9-0.7,1.4-0.9c0.1,0,0.2-0.2,0.3,0c0.1,0.1,0,0.2-0.1,0.2
			c-0.1,0.1-0.2,0.1-0.1,0.2c0.1,0.1,0.2,0.1,0.4,0c0.4-0.2,0.9-0.3,1.3-0.5c0.7-0.2,0.8-0.1,0.7,0.6
			C130.1,41.8,130.1,41.9,130.1,41.9C130.1,41.9,130.1,41.9,130.1,41.9z"/>
		<path d="M125.6,39.3c-0.1,0-0.2-0.1-0.1-0.2c0.4-0.6,0.3-1.3,0.3-1.9c0-3.1,0-6.1,0-9.2c0-0.7,0.2-1.3,0.3-1.9
			c0-0.1,0.1-0.3,0.2-0.3c0.2,0,0.4,0.1,0.5,0.3c0.1,0.2,0.2,0.3,0.4,0.5c0.1,0.1,0.2,0.1,0.3,0.1c0.1-0.1,0-0.2,0-0.3
			c-0.3-0.3-0.6-0.5-0.8-0.9c-0.1-0.1-0.2-0.2-0.1-0.4c0.1-0.1,0.2,0,0.3,0.1c0.5,0.6,1,1,1.3,1.7c0.3,0.6,0.8,0.8,1.3,1.1
			c0.4,0.2,0.7,0.4,0.6,1c-0.2,0.7-0.1,1.4,0,2.1c0,0.5-0.1,0.6-0.5,0.8c-0.6,0.2-0.9,0.5-0.9,1.1c0,0.5-0.4,0.5-0.7,0.6
			c-0.1,0-0.3,0-0.4,0.1c-0.1,0.2,0.1,0.3,0.2,0.4c0.3,0.3,0.3,0.5,0.1,0.8c-0.2,0.4-0.1,0.9-0.1,1.4c0,0.4,0,0.6-0.4,0.8
			c-0.3,0.2-0.6,0.4-0.4,0.9c0,0,0,0.1,0,0.1C127,38.3,125.8,39.4,125.6,39.3z"/>
		<path d="M141.5,38.6c0,1.5,0,3,0,4.5c0,0.5-0.1,1-0.2,1.5c0,0.3-0.1,0.3-0.4,0.2c-0.8-0.3-1.4-1-2.2-1.2c-0.8-0.2-1-0.9-1.4-1.4
			c-0.3-0.3-0.2-0.9-0.1-1.3c0-0.2-0.2-0.6,0.1-0.7c0.3-0.2,0.4,0.2,0.7,0.3c0.1,0.1,0.2,0.1,0.4,0.2c0.9,0.2,1.7,0.8,2.4,1.3
			c0.1,0.1,0.2,0.2,0.3,0.2c0.1,0,0.1,0.1,0.2,0c0.1-0.1,0.1-0.1,0-0.2c-0.1-0.2-0.2-0.3-0.3-0.5c-0.6-0.6-1.1-1.3-1.6-2
			c-0.3-0.4-0.7-0.6-1.2-0.8c-0.5-0.2-0.6-0.4-0.4-0.9c0.3-0.8,0.4-1.7,0-2.5c-0.1-0.2-0.1-0.4,0.1-0.5c1-0.4,1.6-1.3,2.5-1.8
			c0.1-0.1,0.3-0.2,0.4-0.1c0.1,0.2-0.2,0.2-0.2,0.3c-0.1,0.2-0.5,0.1-0.4,0.4c0.2,0.3,0.4,0,0.5-0.1c0.9-0.4,1.1-0.6,1,0.6
			C141.5,35.7,141.5,37.1,141.5,38.6z"/>
		<path d="M132.3,33c0.2,0,0.2,0.1,0.3,0.3c0.2,0.7,0.8,0.7,1.4,0.8c0.2,0,0.3,0,0.5,0.1c1,0.8,1.9,0.2,2.8-0.3
			c0.2-0.1,0.3-0.2,0.5-0.2c-0.6,0.7-1,1.5-1.9,1.7c-0.4,0.1-0.4,0.3-0.2,0.6c0.6,0.8,0.5,2.2-0.3,2.8c-0.4,0.3-0.3,0.5-0.1,0.8
			c0.1,0.1,0.2,0.2,0.1,0.3c-0.2,0.1-0.2-0.1-0.2-0.2c-0.1-0.1-0.2-0.2-0.2-0.3c-0.2-0.4-0.5-0.3-0.8-0.2c-0.3,0.1-0.8,0.2-0.2,0.7
			c0.1,0.1,0.1,0.2,0,0.3c-0.1,0.1-0.2,0-0.2,0c-0.3-0.2-0.7-0.3-1.1-0.3c-0.1,0-0.3,0-0.4-0.1c-0.4-0.5-0.9-0.2-1.3,0
			c-0.1,0.1-0.2,0.1-0.3,0c-0.1-0.1,0.1-0.2,0.1-0.2c0.1-0.2,0.6-0.2,0.4-0.6c-0.2-0.4-0.5-0.2-0.8-0.1c-0.6,0.2-1,0.6-1.6,0.9
			c-0.1,0.1-0.2,0.2-0.3,0.1c-0.1-0.1,0-0.2,0.2-0.3c0.5-0.3,1-0.8,1.5-1c0.4-0.2,0.5-0.6,0.3-1.1c-0.2-0.7-0.2-1.3,0.2-1.9
			c0.2-0.2,0.1-0.6,0.3-0.8c0.2-0.4,0.5-0.7,1-0.8c0.4,0,0.5-0.2,0.3-0.6C132.2,33.3,132.1,33.1,132.3,33z"/>
		<path d="M107.2,46.5c-0.2,0-0.3-0.1-0.2-0.3c0.1-0.2,0.1-0.4,0-0.6c-0.4-0.6-0.4-1.3-0.5-2c0-0.2,0.1-0.4,0.3-0.4
			c1.2-0.2,2.3-0.6,3.5-0.9c0.4-0.1,0.5,0,0.5,0.4c0.1,0.7,0.5,1.1,1.1,1.2c0.3,0.1,0.6,0.1,1,0.1c1.1,0,2.1,0,3.2,0
			c0.5,0,1.1-0.1,1.4-0.5c0.1-0.1,0.3-0.2,0.5-0.2c1.2-0.1,2.3-0.5,3.3-0.9c0.7-0.3,1.5-0.3,2.3-0.4c0.1,0,0.3,0,0.3,0.1
			c0,0.1-0.1,0.1-0.2,0.2c-1.9,0.5-3.6,1.3-5.5,1.8c-0.2,0.1-0.4,0.1-0.6,0.1c-0.5,0.1-1,0.2-1.4,0.5c-0.4,0.3-1,0.4-1.5,0.5
			c-0.9,0.2-1.8,0.3-2.8,0.4c-1.6,0.1-3.1,0.3-4.6,0.9C107.3,46.5,107.2,46.5,107.2,46.5z"/>
		<path d="M114.4,48.2c-1.1,0-2.3-0.1-3.6,0.1c-1.2,0.2-2.4,0.4-3.5,1c-0.1,0.1-0.3,0.1-0.3,0c-0.1-0.2,0.1-0.2,0.2-0.2
			c1.1-0.7,2.2-1.3,3.4-1.7c1-0.4,2-0.6,3.1-0.9c1.2-0.3,2.4-0.6,3.7-0.9c1.3-0.3,2.6-0.7,3.9-1.2c0.2-0.1,0.4,0,0.7,0
			c0.2,0,0.2,0.2,0.1,0.3c-0.3,1.1-0.8,2.1-1.8,2.7c-0.8,0.6-1.7,0.7-2.6,0.8C116.7,48.3,115.6,48.3,114.4,48.2z"/>
		<path d="M126.6,56.5c0,0.7,0,1.3,0,2c0,0.9-0.4,1.3-1.3,1.3c-0.8,0-1.5,0-2.3,0c-0.2,0-0.5,0.1-0.6-0.1c-0.1-0.3-0.2-0.7,0.1-0.9
			c0.2-0.2,0.2-0.3,0.2-0.5c-0.1-1.2-0.1-2.4,0-3.5c0-0.2,0-0.3-0.1-0.4c-0.3-0.3-0.1-0.6-0.2-0.9c0-0.2,0.2-0.2,0.3-0.2
			c0.9,0,1.8,0,2.6,0c0.8,0,1.2,0.5,1.2,1.3c0,0.4,0,0.7,0,1.1C126.6,55.8,126.6,56.1,126.6,56.5C126.6,56.5,126.6,56.5,126.6,56.5z
			 M123.8,56.4C123.8,56.4,123.8,56.4,123.8,56.4c0,0.4,0,0.8,0,1.2c0,1.2-0.1,0.9,1,1c0.4,0,0.6-0.2,0.6-0.6c0-0.9,0-1.8,0-2.6
			c0-1.2,0.1-1.1-1.2-1.1c-0.3,0-0.4,0.1-0.4,0.4C123.8,55.3,123.8,55.8,123.8,56.4z"/>
		<path d="M40.9,56.4c0-1,0-1.9,0-2.9c0-0.3,0.1-0.4,0.4-0.4c0.9,0,1.7,0,2.6,0c0.8,0,1.2,0.5,1.2,1.3c0,0.5,0,1,0,1.5
			c0,0.5-0.2,0.9-0.7,1.1c-0.3,0.1-0.3,0.2-0.2,0.5c0.3,0.7,0.5,1.4,0.8,2c0.1,0.1,0.1,0.2,0,0.3c-0.3,0.2-1.1-0.1-1.2-0.4
			c-0.3-0.7-0.5-1.3-0.7-2c-0.1-0.4-0.5-0.3-0.8-0.3c-0.3,0-0.2,0.3-0.2,0.5c0,0.6,0,1.2,0,1.9c0,0.5-0.4,0.3-0.6,0.4
			c-0.3,0-0.5,0-0.5-0.4C40.9,58.4,40.9,57.4,40.9,56.4C40.9,56.4,40.9,56.4,40.9,56.4z M42.9,55.8c0.1,0,0.3,0,0.4,0
			c0.5,0.1,0.6-0.2,0.6-0.6c0-1,0-1-1-1c-0.1,0-0.1,0-0.2,0c-0.7,0-0.7,0-0.7,0.7C42.1,55.8,42.1,55.8,42.9,55.8z"/>
		<path d="M83.2,56.4c0-1,0-1.9,0-2.9c0-0.3,0.1-0.4,0.4-0.4c0.9,0,1.7,0,2.6,0c0.8,0,1.2,0.4,1.3,1.2c0,0.5,0,1,0,1.5
			c0,0.5-0.3,0.9-0.7,1.1c-0.3,0.1-0.3,0.2-0.2,0.5c0.3,0.6,0.5,1.3,0.8,1.9c0.1,0.3,0.1,0.4-0.3,0.5c-0.5,0-0.8-0.1-1-0.6
			c-0.1-0.6-0.4-1.1-0.6-1.7c-0.1-0.4-0.4-0.6-0.8-0.5c-0.2,0-0.2,0.2-0.2,0.4c0,0.7,0,1.3,0,2c0,0.3-0.1,0.4-0.4,0.4
			c-0.1,0-0.3,0-0.4,0c-0.3,0-0.4-0.1-0.4-0.4C83.2,58.4,83.2,57.4,83.2,56.4C83.2,56.4,83.2,56.4,83.2,56.4z M85.2,55.8
			c0.1,0,0.3,0,0.4,0c0.5,0,0.6-0.1,0.6-0.6c0-0.9,0-0.9-0.9-0.9c-0.1,0-0.2,0-0.2,0c-0.7,0-0.7,0-0.7,0.7
			C84.4,56,84.2,55.8,85.2,55.8z"/>
		<path d="M100,56.5c0,0.7,0,1.3,0,2c0,0.8-0.4,1.3-1.3,1.3c-0.8,0-1.6,0-2.3,0c-0.2,0-0.5,0.1-0.5-0.2c-0.1-0.3-0.2-0.6,0.1-0.9
			c0.2-0.2,0.2-0.4,0.2-0.6c0-1.1,0-2.3,0-3.4c0-0.2,0-0.4-0.1-0.4c-0.4-0.2-0.2-0.6-0.2-0.9c0-0.2,0.2-0.2,0.3-0.2
			c0.9,0,1.9,0,2.8,0c0.7,0,1.1,0.5,1.1,1.2C100,55,100,55.8,100,56.5C100,56.5,100,56.5,100,56.5z M97.3,56.4
			C97.3,56.4,97.3,56.4,97.3,56.4c0,0.4,0,0.8,0,1.2c0,1.1-0.1,0.9,1,1c0.4,0,0.6-0.2,0.6-0.6c0-0.9,0-1.8,0-2.7
			c0-1.1,0.1-1.1-1.1-1.1c-0.3,0-0.5,0.1-0.4,0.4C97.3,55.3,97.3,55.9,97.3,56.4z"/>
		<path d="M153.8,56.5c0-1,0-2,0-3c0-0.3,0.1-0.4,0.4-0.4c0.8,0,1.7,0,2.5,0c0.8,0,1.3,0.4,1.3,1.3c0,0.5,0,1,0,1.4
			c0,0.5-0.2,0.9-0.7,1.1c-0.3,0.1-0.3,0.3-0.2,0.5c0.3,0.7,0.5,1.4,0.8,2c0.1,0.1,0.1,0.2-0.1,0.3c-0.4,0.2-1.1-0.1-1.2-0.5
			c-0.2-0.5-0.4-1.1-0.6-1.6c-0.1-0.3-0.2-0.7-0.7-0.7c-0.3,0-0.5,0.1-0.4,0.5c0,0.6,0,1.3,0,1.9c0,0.4-0.2,0.4-0.5,0.4
			c-0.3,0-0.6,0.2-0.6-0.4C153.8,58.4,153.8,57.4,153.8,56.5C153.8,56.5,153.8,56.5,153.8,56.5z M155.8,55.8c0.1,0,0.2,0,0.3,0
			c0.6,0,0.6-0.1,0.6-0.6c0-0.9,0-0.9-0.9-0.9c-0.1,0-0.2,0-0.2,0c-0.7,0-0.7,0-0.7,0.7C155,55.9,154.8,55.8,155.8,55.8z"/>
		<path d="M165.8,56.5c0,0.7,0,1.3,0,2c0,0.9-0.4,1.4-1.3,1.4c-0.5,0-1,0-1.5,0c-0.9,0-1.3-0.4-1.3-1.3c0-1.4,0-2.7,0-4.1
			c0-0.9,0.4-1.3,1.3-1.3c0.5,0,1.1,0,1.6,0c0.8,0,1.2,0.4,1.2,1.2C165.8,55,165.8,55.8,165.8,56.5
			C165.8,56.5,165.8,56.5,165.8,56.5z M164.7,56.5C164.7,56.5,164.7,56.5,164.7,56.5c0-0.3,0-0.6,0-0.9c0-1.4,0.2-1.2-1.3-1.3
			c-0.4,0-0.5,0.2-0.5,0.5c0,0.9,0,1.7,0,2.6c0,1.4-0.1,1.2,1.3,1.2c0.4,0,0.6-0.2,0.6-0.6C164.6,57.5,164.7,57,164.7,56.5z"/>
		<path d="M103.6,56.4c0-1,0-1.9,0-2.9c0-0.3,0.1-0.4,0.4-0.4c1.2,0,2.4,0,3.5,0c0.2,0,0.4,0.1,0.3,0.3c0,0.1,0,0.3,0,0.4
			c0,0.3-0.1,0.4-0.4,0.4c-0.8,0-1.5,0-2.3,0c-0.4,0-0.5,0.1-0.5,0.5c0,1.2,0,1.2,1.2,1.2c0.1,0,0.3,0,0.4,0c0.2,0,0.3,0.1,0.3,0.3
			c0,0.1,0,0.3,0,0.4c0.1,0.4-0.1,0.5-0.5,0.5c-0.4,0-0.7,0-1.1,0c-0.3,0-0.4,0.1-0.4,0.4c0,1.5-0.2,1.3,1.2,1.3c0.5,0,1,0,1.5,0
			c0.3,0,0.5,0.1,0.4,0.4c0,0.7,0,0.7-0.7,0.7c-1,0-2,0-3,0c-0.4,0-0.5-0.1-0.5-0.5C103.7,58.3,103.6,57.4,103.6,56.4
			C103.6,56.4,103.6,56.4,103.6,56.4z"/>
		<path d="M130.2,56.4c0-1,0-1.9,0-2.9c0-0.3,0.1-0.4,0.4-0.4c1.1,0,2.3,0,3.4,0c0.6,0,0.4,0.4,0.4,0.6c0,0.3-0.1,0.5-0.4,0.5
			c-0.7,0-1.5,0-2.2,0c-0.4,0-0.5,0.1-0.5,0.5c0,0.1,0,0.1,0,0.2c0,1,0,1,1.1,1c0,0,0.1,0,0.1,0c0.6,0,0.9,0.4,0.7,1
			c-0.1,0.2-0.2,0.2-0.4,0.2c-0.4,0-0.7,0-1.1,0c-0.3,0-0.4,0.1-0.4,0.4c0,1.5-0.2,1.2,1.2,1.3c0.5,0,1,0,1.5,0
			c0.4,0,0.4,0.2,0.4,0.4c0,0.3,0.2,0.7-0.3,0.7c-1.2,0-2.3,0-3.5,0c-0.3,0-0.4-0.1-0.4-0.4C130.2,58.4,130.2,57.4,130.2,56.4z"/>
		<path d="M140.2,53.1c0.4,0,0.7,0,1.1,0c0.3,0,0.5,0.1,0.7,0.4c0.2,0.3,0.5,0.6,0.2,0.9c-0.2,0.3-0.9,0.2-1.1-0.1
			c-0.2-0.2-1.5-0.3-1.7,0c-0.3,0.3-0.2,0.8-0.1,1.1c0,0.3,0.3,0.3,0.6,0.4c0.5,0.1,0.9,0.2,1.4,0.3c0.7,0.1,1.1,0.6,1.1,1.3
			c0,0.5,0,1,0,1.4c-0.1,0.5-0.4,0.9-0.9,0.9c-0.8,0.1-1.5,0.1-2.3,0c-0.3,0-0.5-0.1-0.6-0.4c-0.2-0.3-0.5-0.6-0.2-0.9
			c0.2-0.3,0.9-0.2,1.1,0c0.2,0.2,1.3,0.2,1.6,0.1c0.4-0.2,0.3-0.6,0.3-0.9c0-0.4-0.3-0.5-0.7-0.6c-0.5-0.1-1-0.2-1.5-0.3
			c-0.7-0.2-1-0.6-1-1.3c0-0.4,0-0.8,0-1.2c0-0.8,0.4-1.2,1.2-1.2C139.6,53.1,139.9,53.1,140.2,53.1
			C140.2,53.1,140.2,53.1,140.2,53.1z"/>
		<path d="M52.3,59.8c-0.4,0.1-0.5-0.1-0.6-0.5c-0.1-0.6-0.1-0.6-1.1-0.6c-0.5,0-0.5,0.3-0.6,0.6c0,0.2,0,0.4-0.2,0.5
			c-0.3,0-0.6,0-0.9,0c-0.1,0-0.1-0.2-0.1-0.4c0.5-2,0.9-3.9,1.4-5.9c0.1-0.4,0.2-0.5,0.6-0.4c0.3,0,0.6-0.1,0.7,0.4
			c0.4,1.9,0.9,3.8,1.3,5.7C53,59.8,53,59.8,52.3,59.8z M50.9,57.5c0.2,0,0.3,0,0.3-0.2c0-0.3-0.1-0.6-0.2-0.9c0-0.1,0-0.2-0.1-0.2
			c-0.1,0-0.1,0.1-0.1,0.2c-0.1,0.3-0.1,0.6-0.2,0.8C50.5,57.5,50.7,57.5,50.9,57.5z"/>
		<path d="M33.1,56.5c0-0.7,0-1.4,0-2.1c0-0.9,0.4-1.3,1.3-1.3c0.6,0,1.2,0,1.8,0c0.5,0,0.9,0.4,1,0.9c0.1,0.3,0,0.4-0.2,0.5
			c-0.4,0.1-0.7,0.3-1.1-0.2c-0.1-0.2-1.4-0.2-1.6,0c-0.2,0.1-0.2,0.3-0.2,0.5c0,1.1,0,2.2,0,3.4c0,0.4,0.2,0.6,0.6,0.6
			c0.3,0,0.6,0,0.9,0c0.1,0,0.3,0,0.4-0.1c0.3-0.6,0.7-0.2,1.1-0.1c0.2,0,0.3,0.2,0.2,0.4c-0.1,0.5-0.4,0.8-0.9,0.9
			c-0.8,0.1-1.5,0.1-2.3,0c-0.6-0.1-1-0.5-1-1.2C33,57.9,33.1,57.2,33.1,56.5C33.1,56.5,33.1,56.5,33.1,56.5z"/>
		<path d="M56.6,56.5c0-1,0-2,0-3c0-0.3,0.1-0.4,0.4-0.4c1.2,0,2.3,0,3.5,0c0.6,0,0.3,0.4,0.4,0.7c0,0.3-0.1,0.5-0.4,0.5
			c-0.7,0-1.5,0-2.2,0c-0.4,0-0.5,0.1-0.5,0.5c0,1.2,0,1.2,1.3,1.2c0.6,0,0.8,0.4,0.6,0.9c-0.1,0.2-0.2,0.2-0.4,0.2
			c-0.3,0-0.7,0-1,0c-0.4,0-0.5,0.1-0.5,0.5c0,0.6,0,1.2,0,1.9c0,0.5-0.3,0.4-0.6,0.4c-0.3,0-0.5,0-0.5-0.4
			C56.6,58.4,56.6,57.4,56.6,56.5z"/>
		<path d="M171,58.4c0.3-1.1-0.5-2-0.9-3c-0.2-0.6-0.7-1.2-0.7-1.9c0-0.3,0-0.5,0.4-0.4c0.3,0.1,0.7-0.3,0.8,0.3
			c0.1,0.7,0.5,1.4,0.8,2c0.1,0.2,0.3,0.2,0.4,0c0.2-0.7,0.7-1.3,0.8-2.1c0.1-0.5,0.5-0.2,0.8-0.2c0.2,0,0.3,0.1,0.3,0.3
			c0,0.7-0.4,1.2-0.6,1.8c-0.3,0.6-0.6,1.2-0.9,1.9c-0.1,0.3-0.1,0.7-0.1,1c0,0.4,0,0.9,0,1.3c0,0.3-0.1,0.4-0.4,0.4
			c-0.2,0-0.3,0-0.5,0c-0.2,0-0.3-0.1-0.3-0.3C171,59.1,171,58.8,171,58.4z"/>
		<path d="M148.6,57c0,0.8,0,1.6,0,2.4c0,0.3-0.1,0.4-0.3,0.4c-0.2,0-0.3,0-0.5,0c-0.3,0-0.3-0.1-0.3-0.4c0-1.6,0-3.2,0-4.7
			c0-0.4-0.1-0.6-0.5-0.5c-0.1,0-0.3,0-0.4,0c-0.6,0-0.6,0-0.7-0.6c0-0.4,0.1-0.5,0.4-0.5c1.1,0,2.2,0,3.4,0c0.6,0,0.4,0.4,0.4,0.6
			c0,0.3,0,0.5-0.4,0.5c-1.1,0-1.1,0-1.1,1.1C148.6,55.9,148.6,56.5,148.6,57C148.6,57,148.6,57,148.6,57z"/>
		<path d="M67.1,57.1c0,0.8,0,1.6,0,2.3c0,0.3-0.1,0.4-0.4,0.4c-0.1,0-0.3,0-0.4,0c-0.3,0-0.4-0.1-0.4-0.4c0-1.6,0-3.1,0-4.7
			c0-0.4-0.1-0.6-0.5-0.5c-0.1,0-0.3,0-0.4,0c-0.6,0-0.6,0-0.6-0.6c0-0.4,0.1-0.5,0.5-0.5c1.1,0,2.2,0,3.3,0c0.6,0,0.4,0.4,0.4,0.7
			c0,0.4-0.1,0.5-0.5,0.5c-1.1,0-1.1,0-1.1,1.1C67.1,55.9,67.1,56.5,67.1,57.1C67.1,57.1,67.1,57.1,67.1,57.1z"/>
		<path d="M144.6,64.4c1.3-0.3,2.1,0.2,2.9,1.2c0.2,0.3,0.4,0.6,0.7,0.7c0.1,0,0.2,0.2,0.1,0.3c0,0.1-0.2,0.1-0.3,0.1
			c-1.1-0.1-2.2,0-3.3,0c-0.5,0-0.7-0.5-0.9-0.8c-0.3-0.4-0.5-0.8-0.8-1.2c-0.1-0.1-0.1-0.1-0.1-0.2c0.1-0.1,0.2-0.1,0.3-0.1
			C143.7,64.4,144.2,64.4,144.6,64.4z"/>
		<path d="M92.2,56.5c0,1,0,2,0,3c0,0.3-0.1,0.4-0.4,0.4c-0.2,0-0.3,0-0.5,0c-0.3,0-0.3-0.1-0.3-0.3c0-2,0-4,0-6
			c0-0.3,0.1-0.4,0.3-0.3c0.2,0,0.4,0,0.5,0c0.2,0,0.3,0.1,0.3,0.3C92.2,54.4,92.2,55.5,92.2,56.5C92.2,56.5,92.2,56.5,92.2,56.5z"
			/>
		<path d="M137,43.3c0.1,0.1,0.1,0.1,0.2,0.1c1.1,1.1,2.2,2.3,3.2,3.5c0.1,0.2,0.2,0.3-0.1,0.3c-0.2,0-0.4,0-0.5,0.2
			c-0.4,0.4-0.7,0.2-1-0.2c-0.2-0.2-0.4-0.5-0.5-0.8c-0.4-0.8-0.9-1.4-1.4-2.1c-0.2-0.3-0.3-0.6,0-0.9
			C136.9,43.4,136.9,43.4,137,43.3z"/>
		<path d="M149.8,23.4c-0.5,0.5-1,0.9-1.7,1.1c-0.3,0.1-0.6,0.2-0.9,0.3c-0.7,0.2-1.2,0.8-1.9,1.2c-0.3,0.2-0.4,0.1-0.4-0.2
			c0-0.4,0.2-0.7,0.5-0.9c0.6-0.4,1.1-0.9,1.8-1.2c0.4-0.2,0.8-0.3,1.3-0.2C149,23.4,149.4,23.4,149.8,23.4z"/>
		<path d="M115.7,57.8c-0.6,0-1.1-0.4-1.1-0.8c0-0.8,0.3-1.4,0.9-1.4c0.8,0,1.3,0.3,1.3,0.8C116.7,57.4,116.4,57.8,115.7,57.8z"/>
		<path d="M75.4,58c-0.6,0-1.1-0.4-1.1-0.8c0-0.8,0.3-1.4,0.8-1.3c0.4,0,0.9-0.1,1.1,0.4c0.1,0.1,0.2,0.2,0.2,0.4
			C76.5,57.6,76.2,58,75.4,58z"/>
		<path d="M121.7,13.9c0,0,0.2,0,0.4,0c0.5-0.3,0.8,0.1,0.9,0.5c0.2,0.7,0.5,1.3,0.8,2c0,0.1,0.1,0.2,0,0.2c-0.1,0.1-0.2,0-0.2-0.1
			c-0.5-0.7-1.2-1.2-1.8-1.8c-0.2-0.2-0.4-0.3-0.6-0.4c-0.1-0.1-0.2-0.1-0.2-0.2c0.1-0.1,0.2-0.1,0.3-0.1
			C121.4,13.9,121.5,13.9,121.7,13.9z"/>
		<path d="M141.5,29c0.1,0.4-0.1,0.6-0.4,0.9c-0.6,0.5-1.1,0.9-1.8,1.3c-0.1,0.1-0.3,0.2-0.4,0c-0.1-0.2,0.1-0.2,0.2-0.3
			c0.6-0.5,1-1.2,1.5-1.8c0.2-0.2,0.4-0.4,0.5-0.6c0.1-0.1,0.1-0.3,0.3-0.2c0.1,0.1,0.1,0.2,0.1,0.3C141.5,28.8,141.5,28.9,141.5,29
			z"/>
		<path d="M164.6,16.1c0.6-0.6,1.1-1.3,1.8-1.6c0.6-0.3,1.2-0.2,1.8-0.2c0,0,0.1,0.1,0.1,0.1c0,0.1-0.1,0.1-0.1,0.2
			c-0.5,0.2-1,0.4-1.5,0.6c-0.6,0.2-1.2,0.6-1.9,0.8C164.7,16.1,164.6,16.1,164.6,16.1z"/>
		<path d="M150,65.2c0.3,0,0.4,0.2,0.6,0.4c0.2,0.2,0.4,0.5,0.7,0.7c0.2,0.2,0.1,0.3-0.2,0.3c-0.8,0.1-1.2,0-1.6-0.7
			c-0.3-0.4-0.5-0.9-0.8-1.2c-0.1-0.1-0.1-0.1-0.1-0.2c0.1-0.1,0.2,0,0.2,0c0.3,0.3,0.5,0.5,0.8,0.8c0.1,0.1,0.2,0.3,0.4,0.1
			C150.2,65.5,149.9,65.4,150,65.2z"/>
		<path d="M141.5,66.8c-0.3,0.1-0.5-0.2-0.6-0.5c-0.2-0.5-0.3-1-0.4-1.5c0-0.1-0.1-0.2,0-0.3c0.1-0.1,0.2,0,0.3,0
			c0.7,0.5,1,1.2,1.4,1.9c0.1,0.1,0,0.3-0.2,0.3C141.9,66.7,141.7,66.7,141.5,66.8z"/>
		<path d="M143.9,67.8c-0.4,0-0.8-0.4-0.8-0.7c0-0.4-0.2-0.7-0.4-1c-0.1-0.1-0.2-0.3,0-0.4c0.2-0.1,0.2,0.1,0.3,0.1
			c0.7,0.4,1,1.1,1.5,1.6c0.1,0.1,0.1,0.2,0,0.3C144.2,67.8,144,67.8,143.9,67.8z"/>
		<path d="M170.6,13.6c0.5-0.7,1.1-1.3,1.7-1.8c0.4-0.3,0.5,0.1,0.7,0.3c0.3,0.3-0.1,0.3-0.2,0.4C172.1,12.9,171.3,13.1,170.6,13.6z
			"/>
		<path d="M96.4,52c0.5-0.2,1-0.4,1.5-0.6c0.8-0.3,1.6-0.7,2.4-1.1c0.1-0.1,0.3-0.2,0.4-0.1c0.1,0.2-0.1,0.2-0.2,0.3
			c-0.8,0.7-1.8,0.9-2.7,1.4C97.3,52,96.9,52.2,96.4,52z"/>
		<path d="M149.9,64.2c-0.1,0-0.1-0.1-0.2-0.1c-0.4-0.3-0.8-0.6-1.1-0.9c-0.1-0.1-0.1-0.2-0.1-0.3c0.1-0.1,0.2-0.1,0.3,0
			c0.5,0.3,1,0.6,1.5,0.8c0.1,0.1,0.1,0.2,0.1,0.3C150.2,64.2,150,64.1,149.9,64.2z"/>
		<path d="M79.2,67.4c-0.1,0.3-0.2,0.6-0.4,0.8c-0.1,0.1-0.2,0.1-0.3,0C78.3,68,78.2,68.1,78,68c-0.1,0-0.2,0-0.3-0.1
			c-0.1-0.2,0.1-0.2,0.2-0.3c0.3-0.2,0.8-0.2,1.1-0.5C79.1,67.1,79.2,67.2,79.2,67.4z"/>
		<path d="M140.8,46.1c0,0.1-0.1,0.3-0.2,0.3c-0.1,0.1-0.3,0-0.3-0.1c-0.4-0.5-0.7-1-1.1-1.4c-0.1-0.1-0.1-0.2,0-0.2
			c0.1-0.1,0.2,0,0.2,0.1c0.4,0.4,0.7,0.9,1.3,1.1C140.8,45.9,140.8,46,140.8,46.1z"/>
		<path d="M145,23.8c-0.1-0.5,0.2-0.5,0.6-0.5c0.1,0,0.3,0,0.3,0.2c0,0.1-0.6,0.8-0.7,0.7C144.9,24.2,145,24,145,23.8z"/>
		<path d="M124.8,17.1c-0.3-0.1-0.5-0.3-0.5-0.5c-0.1-0.3-0.3-0.6-0.4-0.9c0-0.1-0.1-0.2,0.1-0.3c0.1,0,0.2,0.1,0.2,0.2
			C124.4,16,124.7,16.5,124.8,17.1z"/>
		<path d="M86.9,66.6c-0.2,0.3-0.4,0.6-0.6,0.8c-0.1,0.2-0.3,0.3-0.6,0.2c-0.1,0-0.1-0.1-0.1-0.1c0-0.1,0-0.1,0-0.2
			C86,67.2,86.4,66.8,86.9,66.6z"/>
		<path d="M131.7,31.8c0,0.1,0,0.2-0.1,0.2c0,0-0.1,0-0.1,0c0-0.2-0.2-0.4-0.3-0.6c0-0.1,0-0.2,0.1-0.2c0.1-0.1,0.2,0.1,0.2,0.1
			C131.5,31.5,131.7,31.6,131.7,31.8z"/>
		<path d="M188.2,18.8c-0.1-0.2-0.4,0.1-0.5-0.2c0.2-0.1,0.4-0.1,0.6-0.2c0.1,0,0.2,0.1,0.2,0.2C188.5,18.9,188.4,18.9,188.2,18.8z"
			/>
		<path d="M140.8,33c0-0.1,0-0.2,0.1-0.2c0.2-0.1,0.3-0.4,0.6-0.3c0.1,0,0.1,0.1,0.1,0.2C141.3,32.9,141.1,32.9,140.8,33z"/>
		<path d="M129.3,26.5c0,0.1,0,0.2-0.1,0.2c-0.2-0.1-0.3-0.2-0.4-0.4c0-0.1,0-0.2,0.1-0.1C129.1,26.1,129.1,26.4,129.3,26.5z"/>
	</g>
</g>
</svg>
