<svg xmlns="http://www.w3.org/2000/svg" width="210" height="80">
  <style>
    .st0{fill-rule:evenodd;clip-rule:evenodd}
  </style>
  <g id="Layer_1">
    <path class="st0" d="M105.2 10c.3.1.4 1 .5 1.3.4 1.2.8 2.5 1.2 3.8.6 1.9 1.3 3.7 1.9 5.6.1.3-.2.5-.1.7.1.2.2.6.3.7.1.1.2.1.3.2.3.5.3 1.3.5 1.9.2.6.6 1.3.7 2l.3 1.5c.2.6.5 1.3.7 2.1.1.3-.1.7 0 .9 1.5 0 3.2-.2 4.4.2.3.1.6-.1.8-.1h.9c.6 0 1.2-.1 1.7 0 .4.1.8 0 1-.1.5-.1 2.8 0 3.1.1l.1.2c.3 0 .7.1.9-.1.2-.1.3-.3.5-.3.8-.2 2 .2 2.8.1.7-.1 1.8-.1 2.8-.1 1 0 2.1-.1 3 .1l.6-.1c.3.1 1.3.1 2 0H147.2c0-.4-.5-.6-.3-1.2h.1c.2.7.9 1.3 1.4 1.7v.1c-.8.2-1.1-.5-1.7 0v.1c.9 0 1.7.2 2.5.3v.1c-.7 0-1.6-.1-2.1-.1-.3 0-.9.1-1.3.1-1.3-.2-3.1-.3-4.3-.1-.7 0-1.4-.1-2.2-.1-1.2 0-2.6 0-3.9.1-1.3.2-2.7-.4-3.8-.2-.8.1-2 .3-2.7.2-.6-.1-1.5-.2-2.2-.1-1 .1-2.6.1-3.9 0-.8-.1-2 .1-2.6 0l-.4.1c-.8.1-1.5 0-2.3.1H113c-.7 0-2.7.1-3-.1-.2-1.1-.6-2.3-1-3.3-.1-.3-.1-.6-.2-1-.3-.7-.5-1.5-.8-2.2-.1-.4-.2-.8-.2-1.2-.4-1.2-1-2.6-1.3-3.8v-.5c-.2-.7-.6-1.4-.9-2.2-.1-.5-.2-1.6-.4-1.9h-.2c-.2.8-.3 1.6-.5 2.3-.6 1.9-1.3 3.9-1.9 5.7-.2.6-.3 1.2-.5 1.8-.2.6-.6 1.2-.8 1.8-.1.3 0 .7-.1.9-.1.5-.4 1.1-.5 1.6-.2.6-.3 1.4-.6 1.9h-5.2c-1.3 0-2.8 0-3.7-.2-.5 0-.9 0-1.4.1-.1 0-.2 0-.3-.1-.8 0-1.7.1-2.4 0h-1.4c-2.2-.3-4.3.3-6.5-.1-.4-.1-1 .1-1.3.2-.9.2-2.1.1-2.7 0l-1.2.1c-1.2-.3-3.1.1-4.5 0-.9-.1-1.7 0-2.4 0h-5.9s0-.1-.1-.1c.5-.2 1.2-.2 1.8-.2.2 0 .5.1.6-.1-.6 0-1.1 0-1.7-.1v-.1l.8-.8.4-.2c.2-.2.1-.7.4-.8 0 .6-.2.8-.4 1.1 0 0 .1 0 .1.1.4.2.9-.1 1.4 0 .4.1.7.4 1.2.3 0-.1 0-.1.1-.2.3-.2.9 0 1.3-.1 1.2-.2 2.7 0 3.6.2v-.1c.2-.1.4.1.5.1.1 0 .1-.1.2-.1l1.4-.1h22.3c.3 0 .6.3 1 .2.1-.1.2-.1.4-.2.7-.1 1.7.2 2.3-.1-.2-1 .7-3.8 1.2-4.3-.2-.1.4-1.8.5-2.2.4-1.2 1-2.5 1.2-3.7.1-.2.3-.5.3-.7.1-.7.4-1.9.8-2.3-.2-.3.2-1.2.4-1.5.5-1.4.9-2.8 1.4-4.2.1-.3.3-1.4.6-1.5 0 .4.1.7 0 1.1l-.2.5c.2 0 .4 0 .6-.2-.5-.1-.6-.7-.4-1.2z"/>
    <path class="st0" d="M87.8 25.7c0 .2-.1.2 0 .3.5 0 1.6.5 1.9.7.2.1.3.4.5.5.2.1.9.1 1 .3-.1.1-.1.2-.1.3h.1c.6-.2.2-.2.7 0 0 0 .1 0 .1-.1s.1-.2.2-.2c0 .8 2.5 1.5 3 2-.3.1-.6 0-.7.2 0 0 0 .1.1.1.7.1 1.3.1 2.1.1v.1s-.1 0-.1.1c-.3.2-3.4.3-3.9.1-.2-.1-.4-.3-.6-.4v.2c-.2 0-.8-.3-.9-.5-.1.1-.2.1-.2.2-.3 0-.6-.2-.6-.5-.6 0-1.1-.5-1.5-.7-1.2-.6-2.3-1.2-3.4-1.9-.1-.1-.3-.2-.4-.3-.6-.4-1.8-.7-2.2-1.4-.3.1-.4 0-.6-.2 0-.1.1-.2.1-.3h.1c.9.3 1.6.8 2.3 1.4.3.2.6.2.9.4.4.3.9.8 1.4 1 0-.1 0-.2.1-.3h-.1c-.3 0-.9-.3-1.2-.5-.1-.4 0-.4.1-.8-.4 0-.8-.4-1.1-.6-.6-.3-1.1-.7-1.7-1l-.3-.1c-.4-.2-.7-.6-1.2-.7.1.2.2.2.4.3 0 .3-.3.7-.6.8-.1-.1-.3-.1-.4-.2 0-.1-.1-.2-.1-.3-2.2-.5-3.9-2-5.6-3-1.7-1-3.4-1.9-5.1-2.9-.4-.3-.9-.6-1.3-.9-1.2-.7-2.5-1.5-3.7-2.2-.2-.2-.4-.4-.6-.5-1.1-.6-3.5-1.6-4-2.6v-.1l3.3 1.9c.3.1.5.2.8.3.3.2.6.4.9.7 1 .6 2.1 1 3.1 1.7.7.4 1.4.9 2 1.3.4.2.9.3 1.3.5.2.1.3.3.5.4.4.3.9.4 1.3.6.3.2.7.6 1.1.7.2.1.4 0 .6.1v.1l-.1.1c.1 0 .1.1.2.1h.1v-.2c.3 0 .4 0 .5.3-.3.2-.3.2-.3.3.2.1.4.3.7.3l.1-.1v-.1c.3.1.3.3.5.4h.4l.4.3c.2.1.5.1.6.2.6.4 1.3 1 2.1 1.1.1.3.3.4.5.7.1 0 .1 0 .1-.1l.1-.1c-.1-.3.1-.7.3-.9v.2c.1.1.5.2.6.1.3-.2.5-.8.7-1.1h.1c.2.1.5.3.8.4 0 .3-.3.5-.3.7 0 .1 0 .3.1.4 0 .1-.1.2-.1.4.4.3 1 .7 1.5 1 .3.2.7.2.9.4.4.3 1.3 1 1.7 1zM123 27.1v.2l.1.1c.2-.1 1-.6 1.2-.7.1-.1.1-.3.3-.4.3-.1.5-.2.8-.3.7-.4 1.4-.8 2-1.3.3 0 .5 0 .5.4-1.7 1.1-3.9 2.2-5.8 3.3-.6.3-1.5 1.1-2.2 1v.1c0 .1.1.1.1.2-.1.1-.5.2-.6.3l-.3-.3c-.1.1-.2.2-.4.3-.2.1-.3-.1-.4.1.1 0 .1 0 .1.1-.2.1-.3.2-.5.2-.3-.2-1 0-1.5.1h-1.8c-.1 0-.3-.1-.3-.2-.2 0-.4.1-.6 0v-.1l.1-.1h.6c0 .1.1.2.2.2.3.1.9-.3 1.2-.2 0 .1 0 .1.1.2.4 0 .7-.1 1.2-.1V30c-.3 0-.4-.1-.7-.1-.1 0-.2.1-.3.1l-1-.3s0-.1.1-.1c.2-.1.3-.3.5-.3.3 0 .5-.1.8-.1.3-.1.5-.3.9-.5 0-.2-.1-.2-.1-.3.2-.2.8-.2.9-.6-.1-.1-.1-.2-.1-.3.2.1.2.2.3.3.1-.1.2-.2.4-.2.1.1.2.2.3.2v-.3l.6-.2.7-.6c.1 0 .2 0 .4-.1.4-.2.8-.6 1.3-.7.2 0 .3.1.5.1 0-.1-.1-.1-.1-.2.2-.3.7-.2.9-.4.2-.2.5-.5.8-.6.1 0 .3 0 .4-.1.3-.2.6-.5.9-.7.5-.3.9-.4 1.2-.9-.1-.2 0-.3-.1-.6s-.5-.5-.3-.8c.3.1.7-.3 1-.2.1.3.4 1 .7 1.1.2-.1.2-.1.5-.1.1-.1.1-.2.2-.3h.1c.2.3.2.5.2.9l.1.1h.1c.1-.2.3-.6.5-.7 1-.3 2.1-1.4 3.2-1.4-.1-.1 0-.2.1-.3.1 0 .1.1.2.1.1-.1.2-.2.2-.3.1 0 .2.1.3.1 0-.1 0-.2-.1-.2l.2-.2c.2.1.3 0 .4-.2 0 0 .1 0 .1.1s-.1.1 0 .2c.3 0 .7-.3.9-.5-.1-.1 0-.2.1-.3.1.1.1.2.3.2.8-.6 1.9-1 2.8-1.6 1.2-.7 2.4-1.4 3.5-2.1.8-.5 1.6-.9 2.4-1.4l-.1-.2.3.1c.2-.2.3-.1.6-.2.9-.5 1.8-1.1 2.8-1.6 0 0 0-.1-.1-.1.5.1 1.7-.8 2.1-1v.1c-.2.4-.6.5-1 .7-1 .7-2.1 1.3-3.2 2-3.2 1.9-6.4 3.8-9.6 5.8-.9.6-3 2.1-4 2-.2.2-.2.6-.4.7-.4.3-1 .6-1.5.8-.2 0-.4 0-.6.1-.3.1-.3.7-.8.6-.2-.1-.4-.4-.5-.7l.4-.3v-.1h-.1c-.6.5-1.4.6-2.1 1.1l-.5.5c-.5.4-1.1.8-1.9.7.1.3.3.5.1.9-.5.1-.7.5-1.2.5z"/>
    <path class="st0" d="M69.8 16.6c.1.1.1.1 0 0l.1.1h-.1v-.1zM106.4 19.2s0 .1 0 0v.3l.1.1h.1c0-.2 0-.3-.2-.4zM103.1 19.4c.1.1.1.1.2.1v-.1h-.2zM103.4 19.5c.1 0 .1.1 0 0 .1 0 .1 0 0 0zM106.6 19.7l-.1.1v.1c.1 0 .2 0 .4.1v-.1l-.3-.2zM76.5 20.5c.2.1.2.1.2.2H76.4l-.1-.1.2-.1c-.1 0-.1 0 0 0zM133.7 20.6s.1 0 0 0zM132.7 21.2c.1 0 0 0 0 0zM77.9 21.4zM127.4 22.6c0 .1-.1.1-.1.1v.1l.3-.1v-.1c-.1.1-.2.1-.2 0zM123.5 25.5l-.4.3v.1h.1c.2-.1.4-.1.6-.2v-.1l-.1-.1h-.2zM86.3 25.6c0 .1-.1.2 0 .3 0 0 0 .1.1.1h.5c-.2-.3-.3-.4-.6-.4zM87.5 26l-.2.2v.1c.1.1.2.1.3 0l.2-.2s0-.1-.1-.1h-.2zM122.4 26.1zM89.7 26.2c.1 0 .2.1.3.1v.3h-.1c-.1 0-.2-.1-.2-.1v-.3c0 .1 0 0 0 0zM118.9 28zM147.1 29.4c.7.7 1.5 1.4 2.2 2.1l-.1.1c-.5-.3-2.2-1.5-2.1-2.2zM62.9 29.5c0 .7-1.5 1.9-2.1 2.1v-.1c.7-.7 1.4-1.4 2.1-2zM117.3 29.8s0 .1-.1.1c.1.1.2.1.4.2.1 0 .3-.1.4-.2-.3-.1-.5 0-.7-.1zM64 31.3v.1h.3v-.1H64zM64.3 31.3h.4v.1h-.4zM63.4 31.3c0 .1 0 .1.1.1h.1s0-.1.1-.1h-.3z"/>
    <path class="st0" d="M63.6 31.3c0 .1 0 .1.1.1h.2v-.1h-.3zM94.4 48.1h.4c-.1.9-.6 1.6-.9 2.3-.8 2.2-1.4 4.4-2.2 6.5-.3.8-.7 1.7-1 2.5 0 0 .1 0 .1.1l.1-.1c.6-.2 1.2-.8 1.6-1.3.5-.1 1.6-1.1 2.1-1.4l4.9-3.5c.3 0 .4.2.6.2.4.1.7-.1.9-.2 0 0 0-.1-.1-.1-.3.1-.5.1-.7.1-.2-.1-.3-.2-.4-.3.2-.4.2-.2.5-.4.1-.1.1-.2.2-.3.2-.2.6-.2.7-.3v-.1h-.2v-.1c0-.2.2-.3.4-.3 0 0 0 .1-.1.1l-.2.2v.1c.6-.4 1.2-.7 1.7-1.1.4-.3 1-1 1.6-1.1 1-.2 2.5 1.1 3 1.5 2.3 1.6 4.5 3.3 6.8 4.9.1 0 .2 0 .1-.1.3.3.6.5.9.7l-.1.2c.2.1.4.2.7.3l3.3 2.4s.1 0 .1-.1c-.2-.6-.5-1.3-.7-1.8-.4-1.2-.7-2.6-1.4-3.6.1-.2.1-.4.1-.6-.1-.2-.3-.3-.5-.5.1-.8-.4-1.4-.6-2-.1-.3-.1-.7-.2-1-.2-.6-.6-1.2-.7-1.9h.1l.5.5c1.5-.1 3.2-.1 4.8-.1.5 0 1 0 1.4.1.8-.1 2-.2 2.7-.1h14.8c2.2 0 4.3.2 6.2 0 .4 0 2.3-.1 2.5.1l-.1.1c-.2.3-.5.5-.7.8-.1.1-.2.1-.4.2l-.3.9v-.1c-.3-.3.1-.8.2-1.1-.3.1-.6.1-.9.2-.7.1-2.1 0-2.8-.1-1-.1-2.1.1-3.2-.1-.4 0-.7 0-1.1.1l-2.8-.1h-1.4c-2.1-.3-4.5-.2-6.8-.2v.1c1.5.2 2.5.9 3.1 2.1h.1c0-.4.4-.6.6-.8h.2v.2c-.1.4-.2.7-.6.9v.1c.2.2.4.5.5.8l-.3.2c0 .2.3.7.3.8h.3c0-.1-.1-.2-.1-.3 0 0 .1 0 .1-.1.5.1.6.6.8.9.6.9 1.2 1.7 2 2.5.1.1.1.3.3.3.8.4 2.1.1 2.9.5 1.2.6 2.3 1.4 3.4 2.1 1.3.8 2.5 1.4 3.7 2.2 1 .8 2 1.7 3.1 2.5.3.3 1.3 1.1 1.3 1.6.1.4-.2.7-.3.9l-1.8 2.1c-.2.3-.4.8-.8.9 0 .5-.4.8-.6 1.1h-.1l.2-.4c-.2.1-.8 1-1 1.2h-.5c0 .1 0 .1-.1.1-.8-.1-2.6-2.2-3.1-2.9-.5-.5-1-1-1.5-1.4l-5.4-6c-.7-.8-2.6-2.3-2.6-3.4-.1-.1-.2-.2-.3-.2-.2-.1-.3.1-.5-.1-.2-.3-.5-.6-.7-.9-.5-.7-1.2-1.4-1.7-2.1-.3-.2-.6-.4-.9-.7-.4-.3-.8-.7-1.3-1.1l-.2-.3c-.3-.2-.7-.4-1-.7-.1-.1-.2-.3-.3-.4-.7-.3-1.4-.7-2.1-1-.4-.2-.8-.7-1.2-.9-.4-.2-.8-.2-1-.5.1-.1.1-.1.1-.2h-.9c-.1 0-2.6-.1-2.6-.1v.1c.2.3.3.7.4 1.1.6 1.6 1.1 3.2 1.7 4.9.7 2.1 1.5 4 2.3 6.2.2.7.4 1.4.7 2-.3-.1-.6-1.1-.9-1.4l-.1.1c.1.2.3.5.2.8l-.3.1c-2.1-1.5-4.3-3.1-6.4-4.6-.3-.2-2.1-1.7-2.2-1.7v.1c.4.8 1.4 1.2 2.1 1.7 1.1.8 2.3 1.7 3.4 2.5.8.6 1.7 1.1 2.3 1.9h-.1c-3.9-2.9-7.9-5.7-11.8-8.6-.8-.6-3.5-2.3-3.8-3.1-.3.1-.5.7-.8.9-.8.6-1.6 1.1-2.3 1.7l-12.9 9.3c.2-.3.6-.5.9-.7.5-.5 1.1-.9 1.7-1.3.3-.3.6-.7 1-.9 2.5-1.6 4.8-3.3 7.2-5 .9-.6 1.7-1.3 2.5-1.9.4-.3 1.1-.6 1.3-1.1-.4.1-.6.4-.9.6-.7.5-1.4 1-2.2 1.6-2.2 1.6-4.4 3.1-6.5 4.7-.7.5-1.6.8-2.2 1.5-.7.8-1.8 1.5-2.6 2.1-.2.2-.8.7-1 .4.1-.2.1-.4.2-.6-.2.3-.5.7-.7 1v-.2c.5-1.1.7-2.1 1.1-3.3.2-.6.6-1.1.8-1.7l.3-1.2c.1-.2.2-.5.3-.7.2-.7.4-1.5.7-2.2.1-.2.3-.4.3-.6.3-.7.4-1.6.7-2.3.2-.6.6-1.3.7-1.9-.3-.1-1 0-1.4.1h-2.2v.1c.1 0 .2.1.2.1v.1c-.3 0-.3.1-.5.1h-.7l-1 .2v.3h.4c.2-.1.3 0 .5 0 0 .1 0 .2-.1.3-.4.2-1.2.9-1.5 1.3-.4-.1-2.2 1.2-2.6 1.5-.2-.1-.1-.1-.3-.1-.1.5-.7.7-1 .9-.6.4-1.4 1.2-1.8 1.8-2.7 3.8-6.3 6.8-9.2 10.4-.6.6-1.2 1.2-1.7 1.8-.9 1.1-2 2.3-3.1 3.2-.4.3-.8.8-1.3.8.1-.1.1-.2.2-.3l-.1-.1c-.7 0-1.2-.8-1.4-1.3h-.1v.1c0 .1.1.1.1.2-.3-.2-.5-.7-.7-1-.7-.8-1.4-1.7-2.1-2.5-.2-.2-.8-.7-.7-1.2.1-.5.6-.8.9-1.1.5-.5 2-2 2.7-2.1.1 0 .3.1.4.1.1-.9 1-1.3 1.7-1.7 1.3-.9 2.8-1.7 4.1-2.5.3-.2.7-.2 1-.5.4-.2.8-.6 1.2-.7.5-.2 1.9.1 2.1-.1.4-.2.8-.7 1.1-1.1.3-.4.8-.8 1.1-1.3 1.1-1.6 2.3-4.3 3.9-5.2.8-.4 1.2-.3 2.1-.3.7 0 1.8 0 2.5-.1.4-.1.9.1 1.3 0v-.1h-.1c-2.5 0-4.9 0-7.4-.1-2 .3-4.1.1-6.1.2-1.1.1-2.8 0-4 .2l-.4-.1c-.1 0-.3.1-.5.1l-.7-.2s-.7.2-.8.2h-.8c-1 0-1.9 0-2.6-.2.1.3.3.6.2 1h-.1c-.1-.3-.2-.5-.3-.8-.2-.3-.8-.6-1-1v-.1h5.4c.9 0 2-.1 2.9.1.7 0 1.4 0 2.1.1l.3.2c.5.1.9-.2 1.2-.3h16.6c1.4 0 2.7-.1 3.6.4 0 0 0-.1.1-.1 0-.1-.1-.2-.1-.4.1 0 .3-.1.4-.2z"/>
    <path class="st0" d="M149.3 48.2s.1.1 0 0l.1.1-2.4 2.2c.2-1.2 1.5-1.6 2.3-2.3zM60.8 48.3c.9.1 2.1 1.4 2.3 2.2l-.1-.1-2.2-2.1c-.1 0-.1 0 0 0zM63.2 49.2h.7v.1h-.7zM64.1 49.2h.3v.1h-.3zM124.7 49.2s-.6.3-.7.3v.1c.1.1.1.2.3.2h.1c0-.1 0-.1-.1-.2v-.1c.1 0 .1.1.2.1.1-.1.2-.1.2-.2.1 0 .2.1.3.1.1-.1.2-.1.2-.2 0 0-.1 0-.1-.1h-.4zM104.4 49.2h.1v.1c-.4.3-.6.5-.9.8 0-.1-.1-.1-.1-.2l.9-.7zM105.7 49.2c.4.2 1.5.9 1.6 1.3h-.1c-.2 0-1.6-1-1.5-1.3zM86.5 49.3c.1.1.2.1.3.1v-.1h-.3zM86.9 49.3zM119.4 49.6c.3 0 .4.1.6.2 0 .2-.1.2 0 .3.2.4.7.4 1 .6.1.1.2.2.3.4.2 0 .2-.1.3-.2.2.1.2.2.3.4l.6.5c.2.3.3.5.5.7-.1.1 0 .2 0 .3.1 0 .4.1.5.1 0 .1 0 .2.1.3.4.1.6.2.8.4.3-.1.5-.2.7-.3v.1c-.2.3-.5.5-.5.9l.1-.1c.1-.1.2-.1.2-.2 0 0 .1 0 .1.1.1.7.8.9 1.2 1.2.6.4 1.5 1.1 1.9-.1.1 0 .1.1.2.1s.3-.1.4-.1c0 .1-.6.9-.6.9-.2.1-.7.3-1.1.2-.6-.1-1-.7-1.5-1-.9-.7-1.8-1.4-2.6-2.2-.3-.3-1.3-.8-1.2-1.4-.7-.1-1-.7-1.3-1-.2 0-1.2-.9-1.3-1.1h.3zM86 50c0-.1 0-.1-.1-.2-.4-.1-.7-.1-1-.1v.1c.5.1.6.2 1.1.2zM85.5 52.5v-.2c.1-.1.2-.2.2-.3.4.2.5.8.9 1.1.1-.1.3-.1.4-.2 0-.4.2-.5.4-.7V52h.3c0-.4.2-.4.1-.7h.2l.1.1c0 .2-.1.3 0 .4h.2l.1-.4c.1 0 .3.1.4.1.4-.6 1.4-1.4 2.1-1.6l-.1.1c-.2.5-1.7 1.7-2.1 2l-2.1 2c-1 .8-2 1.6-2.9 2.3-.4.3-1.5.7-2 .1-.1-.2-.1-.3-.2-.5-.1-.1-.2-.1-.3-.3h.2c.1 0 .2.1.3.1.1-.1.1-.1.2-.1.5.9 1.1.6 1.7.1.6-.4 1.1-.6 1.4-1.4h.1c.1.1.1.2.2.3h.1c-.2-.3-.4-.5-.5-.8h.2l-.1-.1s0 .1-.1.1v-.1c-.1-.1-.1-.1-.1-.2.3 0 .5.2.7.3.2-.1.2-.1.4-.1.1-.2.3-.4.2-.6-.2 0-.2-.2-.3-.3h-.3zM125.7 49.7c-.2.1-.3.1-.5.2h-.1v.1c.2-.1.5-.2.7-.2v-.1h-.1zM86.1 49.9s0 .1.1.1h.1v-.1s0-.1-.1-.1h-.1zM86.6 49.9v.1h.2c-.1-.1-.1 0-.2-.1zM87.9 49.9c.1.1.1.1 0 0 0 .1 0 .1 0 0zM124.9 50l.1.1V50h-.1zM124.1 50v.1c.2.1.4.1.6 0V50h-.6zM103.3 50c-.1.4-1.1 1.2-1.5 1.4l-.1-.1c.2-.5 1.1-.9 1.6-1.3zM107.3 50.5h.2v.1c-.1.1-.1 0-.2 0v-.1zM78.1 50.6c.3 0 .7.4.8.6 0 .1-.1.4-.3.4-.3-.1-.6-.6-.5-1zM107.7 50.8c.1 0 .1 0 .2.1 0 .1 0 .1.1.2h-.1s-.1 0-.1-.1c-.1 0-.1-.1-.1-.2zM104.6 51.3s0 .1 0 0zM105.4 51.3c.2.5 1 .7 1.4 1.1 1.1 1 2.4 1.8 3.6 2.7.3.3 1.3 1.1 1.7 1V56l-.6-.3c-.6-.4-1.1-.8-1.7-1.2-1.3-.9-2.9-2.3-4.4-3.2zM104.5 51.4c-.3.2-.7.4-.9.7.2-.1 1-.5.9-.7zM108.6 51.5h.1v.1c-.1 0-.1 0-.1-.1-.1 0-.1 0 0 0z"/>
    <path class="st0" d="M86.7 51.6l.1.1v.1l-.1.1h-.1v-.3zM108.9 51.8l.1.1v.1h-.1v-.2zM103.5 52.1c.1 0 .1 0 0 0zM100.7 52.4c-.1 0-.1 0-.2.1 0 0 0 .1.1.1s.3 0 .3-.1v-.1h-.2zM123.9 52.4c.1.1.1.1 0 0 0 .1 0 .1 0 0zM123.7 52.6h.1v.2h-.1v-.2zM99.3 53.1c.1 0 .1.1.1.1h-.1l-.1-.1c0 .1 0 0 .1 0zM125.3 53.2v0zM86.1 53.2c0 .1 0 .1 0 0zM99 53.4zM98.6 53.6c0 .1 0 .1-.1.1 0 0 0-.1.1-.1zM98.3 53.8c0 .1 0 .2-.1.2s0 0-.1-.1c.1 0 .1 0 .2-.1zM98 54.1c0 .1 0 .1-.1.2-.2.1-.2.2-.3.3h-.2v-.1c.3-.2.4-.4.6-.4zM97.3 54.4s.1 0 .1.1v.1s-.1 0-.1.1h-.1c.1-.1.1-.2.1-.3zM127.6 54.7c.1.1.1.1.1.2h-.1c-.1-.1-.1-.1 0-.2zM82.4 54.8c.1.1.5.6.6.7 0 .2 0 .2-.2.2-.3-.1-.6-.3-.7-.6h.1c.1 0 .1 0 .2.1v-.4zM97 54.8h.1l-.1.1v-.1z"/>
    <path class="st0" d="M127.8 54.9c.1 0 .1.1.2.1-.1.3-.4.7-.8.7l-.1-.1v-.2l.5-.5c0 .1.1.2.1.2V55c.1 0 .1-.1.1-.1zM82.4 55.2c0 .1 0 .1.1.2v-.1s0-.1-.1-.1c.1.1.1.1 0 0zM96.4 55.2h.2l-.1.1c-.1.1-.5.4-.6.3h.1c0-.2.2-.2.4-.4zM95.7 55.8c0 .1 0 .1-.1.2h-.1c.1-.1 0-.1.1-.1 0 0 0-.1.1-.1zM112.4 56l-.1.1c0 .1.1.1.1.2.2.1.4.4.6.3.1 0 0 0 .1-.1-.1-.2-.5-.4-.7-.5zM95 56.2c.1 0 .1.1.1.1s-.1 0-.1.1v-.2c0 .1 0 0 0 0zM94.7 56.5h.1c0 .1 0 .1-.1.2h-.1l.1-.2zM94.1 56.8l.1.1-.1.1-.1-.1c.1 0 .1 0 .1-.1zM93.8 57.1v.1l-.2.2h-.1c0-.1.1-.1.1-.2.1 0 .2 0 .2-.1zM93.2 57.6c0 .1 0 .1-.1.2H93l.2-.2s0 .1 0 0zM121.6 61.7zM121.7 61.9s0 .1 0 0zM87.3 63.8c.1.1.1.1.1.2h-.1v-.1c-.1 0-.1 0 0-.1zM122.7 64.1l.1.1-.1.1h-.1c.1-.1.1-.2.1-.2zM63.9 70.9c.1 0 .1.1.2.2l-.2-.2zM69.5 40.3c.7 0 1 .3 1 .9h.7v-2.9h-.7c0 .7-.4 1-1 1h-3.1v-4.9h2.9c1.7 0 2.6.8 2.6 2.5h.9v-3.5h-9.7v.6c.9 0 1.4.4 1.4 1.1V45c0 .7-.5 1-1.4 1.1v.6h10.3v-3.5h-.9c0 1.7-.8 2.5-2.5 2.5h-2.7c-.6 0-.9-.3-.9-.8v-4.6h3.1zM84.6 46.6h.7V35.1c0-.7.3-1.1 1-1.1v-.6h-4.1v.6c1.2 0 1.8.4 1.8 1.1V43l-7.8-9.5h-1.7v.5c.6 0 .9.7.9 2v9c0 .7-.3 1.1-.9 1.1v.6h4.1V46c-1.3 0-1.9-.4-1.9-1.1v-7.5l7.9 9.2zM92.2 45.6c-.7 0-1.1-.2-1.1-.7v-9.8c0-.7.5-1.1 1.5-1.1v-.6h-4.8v.6c.9 0 1.4.4 1.4 1.1V45c0 .7-.5 1.1-1.4 1.1v.6h8.9v-3.4h-.9c0 1.6-.8 2.4-2.5 2.4h-1.1zM101.1 35.1c0-.7.5-1 1.4-1.1v-.6h-4.8v.6c.9 0 1.4.4 1.4 1.1V45c0 .7-.5 1-1.4 1.1v.6h4.8V46c-1 0-1.4-.4-1.4-1.1v-9.8zM108.5 40.8c1.4.8 2.1 1.7 2.2 2.7 0 .9-.2 1.5-.7 1.8-.4.4-1.1.6-2 .6-.8 0-1.4-.2-1.9-.7-.5-.5-.9-1.6-1.1-3.2h-.9v3.3c.9 1 2.3 1.6 4.1 1.6 1.6 0 2.7-.3 3.5-1 .8-.7 1.2-1.6 1.2-2.7-.1-1.3-.6-2.3-1.6-3.1-.7-.5-1.6-1.1-2.9-1.8-1.3-.7-2-1.4-2-2 0-.6.2-1 .5-1.4.3-.4.9-.6 1.7-.6.6 0 1.1.2 1.6.6.4.4.8 1.1 1 2.1h.6v-2.5c-.8-.8-1.9-1.2-3.3-1.2s-2.4.3-3.1 1c-.7.7-1.1 1.4-1.1 2.4.1 1 .5 1.8 1.4 2.4.4.3 1.4.9 2.8 1.7zM113.8 33.4v3.5h.9c0-1.7.6-2.5 1.7-2.5h1.4V45c0 .7-.5 1.1-1.4 1.1v.6h4.7V46c-.9 0-1.4-.4-1.4-1.1V34.4h1.4c1.1 0 1.7.8 1.7 2.5h.9v-3.5h-9.9zM130.8 40.3c.7 0 1 .3 1 .9h.7v-2.9h-.7c0 .7-.4 1-1 1h-3.1v-4.9h2.9c1.7 0 2.6.8 2.6 2.5h.9v-3.5h-9.7v.6c.9 0 1.4.4 1.4 1.1V45c0 .7-.5 1-1.4 1.1v.6h10.3v-3.5h-.9c0 1.7-.8 2.5-2.5 2.5h-2.7c-.6 0-.9-.3-.9-.8v-4.6h3.1zM145.5 35.2c-1.1-1.1-2.7-1.8-4.8-1.8h-5v.6c.9 0 1.4.4 1.4 1.1V45c0 .7-.5 1.1-1.4 1.1v.6h5c2.1 0 3.7-.7 4.8-1.8 1.1-1.2 1.6-2.7 1.6-4.7 0-2.2-.5-3.9-1.6-5zm-1.7 8.9c-.8 1.1-1.9 1.6-3.2 1.6h-.3c-.8 0-1.3-.3-1.3-.9V34.2h1.6c1.4 0 2.5.6 3.2 1.7.8 1.1 1.2 2.6 1.2 4.3 0 1.5-.4 2.9-1.2 3.9z"/>
  </g>
</svg>
