<svg xmlns="http://www.w3.org/2000/svg" width="210" height="80">
  <style>
    .st1,.st2{fill-rule:evenodd;clip-rule:evenodd;fill:#b00006}.st2{fill:#fff}
  </style>
  <g id="Layer_1">
    <path fill-rule="evenodd" clip-rule="evenodd" d="M0 0h210v80H0z"/>
    <path class="st1" d="M91.1 43.5V65c0 3.3-2.7 6-6 6h-1.9c-3.3 0-6-2.7-6-6V43.5h5.6v21.1c0 .7.6 1.3 1.3 1.3h.1c.7 0 1.3-.6 1.3-1.3V43.5h5.6zM107.1 45.8l4 24.7h7.5l3.9-24.7v-2.3h-5.1l-2.6 16.6-2.4-16.6h-5.3zM131 45.8l4 24.7h7.5l3.9-24.7v-2.3h-5.1l-2.6 16.6-2.4-16.6H131zM123.9 43.5h5.6v27.1h-5.6zM147.7 70.6h12v-5.2h-6.4v-5.8h4.5v-5.1h-4.5v-5.8h6.4v-5.2h-12v27.1zM67.9 64.9v-4.3h-5.6V66c0 1.3 1.1 3.4 3 4.3 1.9.9 5.6 1 7.4 0 1.8-1 3.1-2.7 3.1-4.3v-7.1c0-1.3-.9-2.6-2.2-3.3-1.1-.6-3.3-1.1-4.5-1.4-.8-.3-1.1-.3-1.1-1.3v-3.4c0-.7.2-1.1 1.1-1.1.9 0 1.1.3 1.1 1.1v4h5.6v-4c0-1.2 0-1.8-.6-2.9s-1.9-2.6-3.4-3c-1.5-.4-3.7-.5-5.2-.1-1.5.5-2.7 1.1-3.6 3-.4.8-.7 1.9-.7 3v4.1c0 2.3 1.7 4.7 4 5.4 1 .3 2.3.6 3.2.9.8.5.7 1.4.7 1.9v3.3c0 .8-.5 1-1.1 1-.7-.1-1.2-.5-1.2-1.2zM58.2 53.4h.7c1.2 0 2.2-1 2.2-2.2v-5.6c0-1.2-1-2.2-2.2-2.2h-.7c-1.2 0-2.2 1-2.2 2.2v5.6c-.1 1.2.9 2.2 2.2 2.2zm.3-1.9c-.2 0-.4-.2-.4-.4v-5.4c0-.2.2-.4.4-.4s.4.2.4.4v5.4c0 .2-.2.4-.4.4zM50.3 45.4h1.5v8h2v-8h1.5v-1.9h-5v1.9zM92.8 43.5v27h3.4v-.7c0-.6.2-1.9.2-2.3-.1-.5-.2-.9-.2-1.4v-.8-.4c0-.2.1-.6-.1-.8.2-.3 0-.7-.1-1-.1-.9.1-.6-.1-1.7-.1-.5-.2-1-.2-1.6-.1-1 .2-1.1.1-1.6-.1-.8-.2-.9 0-1.7.1-.3.1-.6.1-1 0-.2.1-.5.1-.6.1-.3.4-.7.4-1.1v-.7c.1-.4 0-.5-.2-.8-.3-.4-.1-.5-.3-.7-.3-.4-.4-.4-.5-.9-.2-1.1-.6-.8-.3-2 .1-.4.5-.1.6.2 0 .2-.1.4.1.6.3.3.3.6.3 1.1.1.1.2.1.3.2.2.1.1.1.3 0 .1.4.1.2.4.4.2.1.3.2.4.4.1.3.3.8.7.9l.2-.1c0-.8-.1-1.7.1-2.4.3-1-.1-1-.1-1.6 0-.6.1-.5-.2-1-.1-.2-.1-.5-.2-.6.1-.1.2-.2.4-.2.4-.1.9.5 1.1.7.2.4.3 1.1.3 1.5 0 .1-.1 1 .1 1.9.1.4 0 1 .1 1.3h.2l.3-.8c.4-.8.4-.2.5-1.2v-.6c0-.9.2-.4.1-1.8 0-.3 0-.8.2-1.1.2-.5.7-.3 1 0 .2.4.1.8.1 1.2v2.2c0 .4-.1.7-.2 1v.2l-.1.8c0 .1 0 .2-.1.3 0 .2-.1.2-.1.4v.1c.3-.1.5-.6.6-.8.2-.4.3-.6.6-.9.2-.3.1-.7.1-.9V50l.1-.1c.1-.2.1-.4 0-.6-.1-.3-.2-.3-.2-.6 0-.9.5-1.1.9-.3.1.2.3.5.3.8.1.3-.1.4 0 .7 0 .5 0 .8-.1 1.3-.3 1.5-.6 1.1-.7 1.5-.1.2-.1.4-.2.6-.1.2-.2.3-.2.5l-.6 1.2c-.2.3-.2.5-.3.8v.3c0 .3.1.2 0 .5l-.2.5c0 .1-.1.2-.1.2-.2.3-.4.5-.5.9-.1.4-.1.2-.3.4-.1.2 0 .3-.3.4-.1.1-.7.6-.7.7 0 1.4.2 1.1.4 2.2.2.7-.1.6.4 1.7.2.4-.1.8-.1 1.1.1 0 .2.1.2.1v.6c.3 0 .4.2.5.3-.1.4-.2.2-.1.6 0 .1.1.3 0 .4-.1.2-.1 0-.2.2-.2 0-.1-.1-.2-.2l-.1.1-.1.1c-.2.1-.2.1-.2.3V67.5c0 .1.3.3.3.4.2.2.2-.2.7.2.2.2.1.2.3.5 0 .1.1.2.1.3.1.2.1.3.2.5l.1.1c.6.6.3.8.5 1.4h3.2v-2.3l-1.8-8c.1-.4 2.1-1.2 2.1-4.3v-6.4c0-4.3-2.4-6.1-6.5-6.1l-7-.3zm5.3 25.6c0-.2.5-.2.5 0 0 .1-.1.1-.2.1h-.1c0 .1-.2.3-.2-.1zm.4.2c.1-.2.4 0 .6.1 0 .2 0 .3-.2.3-.3.2-.6-.1-.4-.4zm-2-13c-.4-.3-.2 0-.2-.4l.3-.2c.1-.1.1 0 .1-.1.8.1-.2.7-.2.7zm3.1-2.8c-.2-.1-.4-.2-.4-.4 0-.1 0-.1.1-.2.2-.4.2-.5.6-.5 0 .2-.1.5-.1.6-.1.4-.1.3-.2.5zm.9 14.5c0-.2.5-.2.8 0 .3.3.2.3.2.5-.2 0-.3.1-.5.1 0 .1-.5-.3-.5-.6zm-4.7-11.6c.2 0 .6-.1.6.1 0 .1-.1.7-.2.8-.1 0-.4 0-.4-.1-.2-.2-.1-.5 0-.8zm3.1 3.8c0-.2.3-.2.4-.2.3 0 .4.9.4 1.2-.4 0-.4-.2-.4-.4-.2-.4-.4-.1-.4-.6z"/>
    <g>
      <path class="st2" d="M112.3 41.9h6.7V28.5h7.3v-6.2H119v-7h8.5V9h-15.2zM129.2 15.3h4.8v26.6h6.7V15.3h4.9V9h-16.5v6.3zM94.6 41.9h2.2l-.1-.6.3-1.3-.9-1.3-.1-1.5.8-.9-.5-2.7-.8-1.3.3-.7-.9-4.2-.4-.9v15.4h.1zm3.8 0l-.7-1.1-.3-1.7.1-.3-.2-.6.3-.7-1.5-5.9-.3-4.7h-.3l-.9-3.1v-7.5l1.9 3.4.7 4.4-.2 2.5.4.9-.1.5.6 1.1-.1 2.7L100 41l-.1.7.1.2h-1.6zm3 0l-1.3-2 .1-1.1-.5-.6-1.1-5.2.1-2.7-.7-1.9-.4-3v-3.3l-.3-1.3-.5-2-2.1-4.4V9H96l.8 1 .5.1 1.4 3.2-.2 1.4.5 1.1-.3.9 1.2 2-.5-1.7-.3-.1.3-1-.5-1.2.2-1.9-1.3-2.3.7-.3.5.3.1-1.5h10.8v6.3h-8.5v7h6.1v6.2h-4.3l-.8-1 .3-.7-1.5-1.3-.7-1.9-.5-.7v-2l-.3-.9-.1 2.6.7 2.3 1.2 1.6.3 1.9h-.5v7.1h1.1l.5 2.2-.3 1.4v1.7l-.4-1.3-.9-1.2.9 3.4-.8.2zm2.3 0h6.1v-6.3h-6.3l-.3 1.1.6 1.7-.8 1 .3 1.1-.3.5.7.9zM97.8 9h-.6l-.3.4.9.6.6-.6-.6-.4zm-1 28.3l.3 1.5-.7-.7.4-.8zM77 9h2.3l.8 1.2.4.1v1.1l1.4 1.5.3 1.4.5.1-.2.4 1.4 3.1v-.1 4.8l-.4-.1-.6-.8.3-.8-.8-1.3-.2-1.3-.8-.7-.8-1.6-.2-1.1-.8-1.5-.9-1.1-.7-1.1-.1.8.6.7.7 1.6.6.3.4 1.6.9 1.4h-.3l1.3 2.6V22l.6.6 1 2v11.1h4.9l1 1.1.6 1.7.2-.2.6.6-.2.6 1.3 1.8v.7H76.9V9h.1zm3.3 0l.1.3.9.2-.1 1.7 1 1.8.8 1.9.7.2V9h-3.4zM90 35.6l.2 1.6 1.3 1.5.3.9.4-.1v-3.8H90v-.1zm-6.3-20.1l-.4-.3.2.6h.3l-.1-.3z"/>
      <path class="st2" d="M84.7 24.5l-.1 1.2 1 .2zM84.8 28.2l.3.8-.5.3zM102.9 29.3l-.1 1.2 1.1.3-.5-.7-.2.3-.1-.7zM104.4 28.9l-.7.2v.6zM103.7 32.1l-.2-.7-.7.1zM104.1 43.2l-.4-1-.9.2zM100.6 41.6l-.7.5.3.7zM93.4 39.8l-.7.5.4.7z"/>
    </g>
  </g>
</svg>
