<svg xmlns="http://www.w3.org/2000/svg" width="210" height="80">
  <path d="M73.5 30.8c.2-.8.3-1.7.5-2.5.9-5 1.8-9.9 2.7-14.9.3-1.5.3-1.5 1.8-1.5h3.3c.3 0 .4.1.4.4v5.3c0 .3-.1.5-.4.5-.2.1-.4.2-.7.3-.3.2-.5.4-.5.8.1.4-.1.5-.5.5h-2.7c-.2 0-.4-.1-.6.1 1.1.5 2.2.9 3.5.8.9-.1.8-.2.8.8v3.4c0 .3-.1.5-.4.5-.1 0-.1 0-.2.1-1.6.5-1.9.9-1.7 2.6 0 .1 0 .3.1.3.5 0 .4.4.4.7v2.8c0 .4-.1.5-.5.5-.5 0-1-.1-1.5-.4-.8-.5-1.7-.9-2.6-1.4-.2-.1-.4-.3-.7.1-.2.4 0 .5.3.7.9.6 1.8 1.2 2.8 1.7.6.3.6.6.4 1.1-.1.5-.3.6-.7.3L72.3 32c-.2-.1-.5-.4-.7.1-.3.4 0 .5.3.7.9.6 1.9 1.2 2.8 1.7.4.2.5.4.3.8-.4.7-.3.7-1 .3-1.4-.8-2.8-1.5-4.2-2.3-.3-.2-.5-.2-.6.2-.2.4 0 .4.2.6 1.4.9 2.9 1.8 4.3 2.6.4.3.5.5.3.9-.1.1-.2.3-.1.5 1.1-.1 2.2-.5 3.2-1.1 1.4-.8 2.9-1.5 4.3-2.3.8-.4 1.6-.4 2.3 0 1.7.8 3.3 1.9 5 2.6.8.4 1.6.6 2.5.8-.1-.5-.4-.9-.5-1.3-.2-.4-.4-.7-.5-1.1-.2-.9-.8-1.1-1.6-1-1 .1-1 0-1.3-1 0-.1-.1-.2-.1-.3-.3-1-.3-1-1.3-1-.3 0-.4-.1-.4-.4v-3.2c0-.1 0-.3.1-.3.7-.1.5-.7.5-1.1 0-1.2 0-1.2-1.1-1.7h-.1c-.4-.1-.9-.1-1.1-.4-.2-.3-.1-.9-.1-1.3v-2.8c0-.4.1-.5.5-.5.5 0 1.1-.2 1.5.1.3.1.3.7.3 1.2.5 2.7 1 5.4 1.4 8.1 0 .2.1.4.1.6.2-.7.2-1.3.3-2 0-.3.1-.4.4-.3 1.6.4 3.2.8 4.8 1.1.4.1.3.3.3.6-.4 3-.9 6-1.3 9-.2 1.4-.4 2.9-.6 4.3 0 .4-.2.5-.6.5h-7.7c-.4 0-.5-.1-.5-.5v-7.7c0-.4-.1-.6-.6-.5-.6.1-1.1.4-1.6.6-1.1.6-2.3 1.2-3.4 1.8-1.7.9-3.5 1.3-5.4 1.4-.7.1-1.5.1-2.3.2.6.7 1.1 1.4 1.6 2.1.5.7 1 1.4 1.3 2.1.2.3.1.4-.3.4h-2.1c-.5 0-.6-.2-.7-.6-.3-2.2-.6-4.3-.9-6.5-.7-5.1-1.5-10.2-2.2-15.2-.6-4-1.1-8-1.7-12 .3-.4.4-.5.9-.5h4.9c.4 0 .5.1.6.5.4 3.3.8 6.5 1.2 9.8.5 3.8 1 7.5 1.5 11.3-.1.1 0 .1.1.2-.1 0-.1 0 0 0zM121.5 38.4v-1.6-7.2c0-.4.1-.5.5-.6.9-.2 1.7-.4 2.6-.6.5-.1.7-.4.9-.8.3-.8.3-1.6.4-2.4 0-.5-.3-.8-.8-.9-1-.1-2-.2-3-.2-.3 0-.5-.1-.5-.5V9.4c0-.4.1-.5.5-.5h18.1c.3 0 .4.1.6.3l3.4 3.4c.2.2.3.4.3.7v13.8c0 .3-.1.5-.3.7-1.1 1.1-2.2 2.2-3.3 3.2-.3.3-.4.6-.2 1 .5 1.1.9 2.3 1.4 3.4.1.3.1.4-.2.5-.9.2-1.7.4-2.6.6-.3.1-.6.3-.8-.1h-.3l-1.2.3c-.4.1-.7.3-.9-.3-.1-.3-.5-.2-.7-.2-.7.1-1-.1-1.2-.8 0-.2-.1-.3-.2-.5-.1-.4-.3-.5-.6-.5h-3.3c-.3 0-.6.1-.6-.4 0-.2-.1-.2-.3-.3-1.5-.3-3.1-.3-4.6 0-.2 0-.3.1-.3.3.1.5-.2.5-.5.4-.5-.1-.7.1-.9.6-.5 1.3-.9 2.4-1.4 3.4.1 0 0 0 0 0zm11.4-12.6h5.2c.4 0 .6-.1.6-.6V14.9c0-.4-.1-.5-.5-.5h-10.3c-.4 0-.6.1-.6.6v10.3c0 .4.1.5.5.5h5.1zM108.7 62.6c.1-.2.1-.4.1-.6V49.2c0-.9-.1-.7.8-.7h2.4c.5 0 .6.1.6.6v21.3c0 .6-.2.7-.7.7h-2.6c-.4 0-.6-.1-.8-.5-2.3-4.4-4.5-8.7-6.8-13-.1-.2-.2-.4-.4-.6-.1.2-.1.4-.1.6v12.9c0 .5-.1.6-.6.6H98c-.4 0-.5-.1-.5-.5V59.8 49.2c0-.5.1-.6.6-.6h2.7c.4 0 .6.2.8.5 2.3 4.5 4.7 8.9 7 13.4-.1 0-.1.1.1.1zM153.8 59.7V49.1c0-.5.1-.7.6-.7h10.1c.4 0 .6.1.9.4 1 1 2 2.1 3.1 3.1.2.2.3.5.3.8v4.6c0 .4-.1.6-.4.9-1.1 1-2.1 2-3.2 3-.3.3-.3.5-.2.9 1.2 2.8 2.3 5.6 3.5 8.4.2.4.1.5-.4.5h-3c-.4 0-.6-.1-.7-.4-1.1-2.7-2.3-5.5-3.4-8.2-.2-.5-.5-.8-1.1-.8-.6.1-1.2 0-1.8 0-.5 0-.6.1-.6.6v8.1c0 .5-.1.7-.7.7-.8-.1-1.7 0-2.5 0-.5 0-.6-.1-.6-.6.1-3.5.1-7.1.1-10.7zm6.8-1.8c.6 0 1.1-.1 1.7 0 .9.1 1.6-.2 2.2-.9.4-.5.7-.9.6-1.5-.1-1.8 0-1.8-1.4-3-.2-.1-.3-.2-.5-.2H158c-.3 0-.5.1-.5.4v4.8c0 .4.1.5.5.5.9-.1 1.7-.1 2.6-.1zM116.3 59.7V49.1c0-.5.1-.6.6-.6h10.2c.3 0 .5.1.8.3 1 1 2 2.1 3.1 3.1.2.2.4.5.4.8v14.1c0 .3-.1.5-.3.8l-3.1 3.1c-.2.2-.5.3-.8.3H117c-.5 0-.6-.1-.6-.6-.1-3.6-.1-7.2-.1-10.7zm3.7.1v6.9c0 .4.1.6.6.6 1.3 0 2.5-.1 3.8 0 1.2.1 2.1-.2 2.8-1.2.2-.3.4-.6.4-1 0-3.2-.1-6.5 0-9.7 0-1.2-.2-2.1-1.2-2.9-.3-.2-.5-.4-.9-.4h-4.9c-.5 0-.6.1-.6.6v7.1zM59.9 59.7V49c0-.5.1-.6.6-.6h2.6c.5 0 .6.2.6.6v8.2c0 .5.1.6.6.6h6.4c.4 0 .6-.1.6-.6v-8.3c0-.4.1-.6.6-.6.8 0 1.7.1 2.5 0 .6 0 .7.2.7.7v21.2c0 .5-.2.7-.7.6h-2.5c-.5 0-.6-.1-.6-.6V62c0-.5-.1-.7-.6-.7h-6.3c-.5 0-.6.2-.6.6v8.2c0 .4-.1.6-.6.5-.8 0-1.7-.1-2.5 0-.6 0-.7-.2-.7-.7 0-3.1-.1-6.7-.1-10.2zM135.1 59.7V49c0-.4.1-.6.5-.6h13.9c.4 0 .6.1.6.5v2.6c0 .5-.2.6-.7.6h-10c-.5 0-.6.1-.6.6v4.4c0 .5.2.6.7.6h4.4c.4 0 .6.1.5.5V61c0 .3-.1.4-.4.4h-4.7c-.4 0-.5.1-.5.5v4.7c0 .4.2.5.6.5h10.1c.5 0 .6.1.6.6v2.7c0 .3-.1.5-.4.5h-14.1c-.5 0-.4-.2-.4-.5-.1-3.5-.1-7.1-.1-10.7zM78.7 57.9v-8.8c0-.5.1-.6.6-.6h2.6c.5 0 .6.1.6.6V65c0 .5.2.8.5 1.2.7.9 1.5 1.2 2.6 1.1.8-.1 1.7 0 2.5 0 .3 0 .5-.1.7-.3 1-.8 1.3-1.7 1.3-3-.1-4.9 0-9.9 0-14.8 0-.5.1-.7.6-.6h2.6c.3 0 .5.1.5.4v17.9c0 .3-.1.4-.3.6-1.1 1.1-2.2 2.1-3.2 3.2-.3.2-.5.3-.7.3h-6.7c-.3 0-.5-.1-.7-.3L79 67.5c-.2-.2-.3-.5-.3-.8v-8.8zM50.5 61.6v8.8c0 .5-.1.6-.6.6h-2.6c-.5 0-.6-.1-.6-.6v-8.8-8.7c0-.7 0-.7-.7-.7h-4.4c-.4 0-.5-.1-.5-.5v-2.8c0-.3.1-.4.4-.4h14.2c.3 0 .4.1.4.4v2.8c0 .4-.1.5-.5.5H51c-.4 0-.6.1-.6.6.1 2.9.1 5.9.1 8.8zM106.4 9h2.2c.3 0 .5.1.5.4 1.2 4.7 2.4 9.3 3.7 14 .1.4.1.6-.4.6-1-.1-2-.1-3-.2-.8-.1-.9-.2-.9-1 0-1.6 0-3.2-.2-4.7-.1-.9-.8-1.6-1.3-2.3-.2-.3-.6-.2-.9.1-.7.9-1.3 1.8-1.3 3 0 1.3-.1 2.5-.1 3.8 0 .9-.1 1-1 1.1-1 .1-2 .1-3.1.2-.4 0-.5-.1-.4-.5.6-2.3 1.2-4.7 1.8-7l1.8-6.9c.1-.4.3-.5.7-.5.5-.1 1.2-.1 1.9-.1zM97.5 43.9h-2.4c-.4 0-.4-.1-.3-.5 1.1-4.1 2.1-8.2 3.2-12.2.1-.3.1-.5.5-.4 1.5.4 3.1.8 4.6 1.3 1.2.3 1.3.6 1.4 1.8.2 2 .3 3.9.5 5.9 0 .4-.1.6-.5.7-1.2.2-2.3.6-3.4 1-.6.2-.9.6-.8 1.3 0 1.2 0 1.2-1.2 1.2-.6-.1-1.1-.1-1.6-.1zM115.3 43.9h-2.4c-.4 0-.5-.1-.4-.4v-.6c0-1-.1-1.1-1-1.4-1-.4-2.1-.7-3.2-.9-.4-.1-.5-.2-.5-.6.2-2.2.4-4.3.6-6.5 0-.4.2-.7.5-.9.4-.3.8-.4 1.3-.5 1.4-.4 2.7-.7 4.1-1.1.3-.1.5-.1.6.3 1.1 4.1 2.1 8.2 3.2 12.2.1.4 0 .5-.4.5-.8-.1-1.6-.1-2.4-.1z"/>
  <path d="M93.5 9h2.4c.4 0 .5.1.5.5-.4 2.9-.9 5.8-1.3 8.7-.3 1.8-.5 3.5-.7 5.3 0 .3-.1.5-.5.5-1.6 0-3.3.1-4.9.2-.4 0-.5-.1-.4-.5.6-4.8 1.3-9.5 1.9-14.3 0-.3.1-.4.5-.4h2.5zM53.2 21.1L55 25c.2.4.4.5.7.5 1.4.1 2.7.3 4.1.5.1.2-.1.3-.2.4-.9.9-1.9 1.8-2.8 2.6-.2.2-.3.4-.2.7.3 1.4.5 2.8.8 4.3-.7-.4-1.4-.8-2.1-1.1-.6-.3-1.2-.6-1.7-1-.3-.2-.5-.1-.8 0-1.2.7-2.5 1.4-3.8 2.1.1-.6.2-1.1.3-1.7.2-.8.3-1.7.5-2.5.1-.4 0-.6-.3-.9-1-.9-2-1.9-3.1-2.9.8-.1 1.5-.2 2.1-.3.7-.1 1.4-.2 2.2-.3.3 0 .5-.1.7-.5.5-1.1 1-2.2 1.6-3.4l.2-.4zM150.7 26c1.4-.2 2.8-.4 4.1-.5.4 0 .6-.2.7-.5.5-1.2 1.1-2.3 1.6-3.5.1-.1.1-.3.2-.3.6 1.3 1.2 2.5 1.8 3.8.2.3.3.5.7.5 1.4.2 2.7.3 4.1.5 0 .2-.1.3-.2.4-.9.9-1.9 1.8-2.8 2.6-.2.2-.3.4-.2.7.3 1.4.5 2.8.8 4.3-1.2-.7-2.3-1.3-3.4-1.9-.5-.3-1-.3-1.5 0-1.1.7-2.2 1.2-3.4 1.9.1-.8.3-1.4.4-2.1.1-.7.3-1.4.4-2.1.1-.3 0-.5-.2-.8-.9-.8-1.8-1.7-2.7-2.5-.2-.2-.4-.3-.4-.5zM140.2 43.9h-4.6c-.2 0-.4 0-.4-.3 0-.4.2-.3.5-.3 1.1 0 1.1 0 .8-1.1-.1-.3-.2-.6-.3-.8-.2-.7.1-1.3.8-1.5.5-.1 1.1-.3 1.6-.4.3-.1.6 0 .6-.5 0 0 .1-.1.2-.1 1.1-.3 2.1-.7 3.2-1 .3-.1.4 0 .5.3.7 1.8 1.4 3.5 2.2 5.3.2.4 0 .5-.3.5-1.7-.1-3.2-.1-4.8-.1zM82.8 15v-2.6c0-.4.1-.5.5-.5 1.2 0 1-.1 1.2.9.4 2.1.8 4.1 1.1 6.2 0 .2.3.6-.2.6-.3 0-1 .4-1-.4s-.6-.9-1-1c-.4-.1-.5-.3-.5-.7-.1-.9-.1-1.7-.1-2.5zM127 41.8c-1.1-1-2.1-1.1-3.2-.1.6-1.3.3-2.3-1-2.9.5-.3.9-.2 1.3-.3.4 0 .6-.2.7-.5.1-.4.3-.7.5-1.1.4.5.4 1.2.9 1.5.4.3 1.1.2 1.7.3l-.7.7c-.5.4-.7.8-.4 1.4.1.2.1.5.2 1z"/>
</svg>
